<svg width="182" height="42" viewBox="0 0 182 42" fill="none" xmlns="http://www.w3.org/2000/svg">
<g clip-path="url(#clip0_5_199)">
<path d="M50.121 31.5173C48.9023 32.0744 47.4985 32.3529 45.9096 32.3529C44.4611 32.3529 43.1232 32.1141 41.8971 31.6366C40.6697 31.1591 39.6063 30.4827 38.7057 29.6085C37.805 28.7343 37.0982 27.6861 36.5863 26.4662C36.0745 25.2464 35.8186 23.9034 35.8186 22.4361C35.8186 20.9688 36.0795 19.5723 36.6 18.3525C37.1205 17.1326 37.8398 16.0943 38.7591 15.2375C39.6771 14.3808 40.7542 13.7217 41.9902 13.2616C43.2263 12.8028 44.5593 12.5728 45.9904 12.5728C47.3146 12.5728 48.6166 12.8078 49.8973 13.2753C51.1769 13.7441 52.2154 14.4293 53.0093 15.3296L49.9371 18.4047C49.5135 17.8215 48.9569 17.3888 48.2687 17.1053C47.5805 16.823 46.8736 16.6812 46.1494 16.6812C45.3543 16.6812 44.6264 16.8267 43.9642 17.1189C43.3021 17.4112 42.7319 17.8128 42.2561 18.3251C41.7791 18.8374 41.4089 19.443 41.143 20.1419C40.8784 20.8407 40.7455 21.6042 40.7455 22.4348C40.7455 23.2655 40.8784 24.0613 41.143 24.7676C41.4076 25.4752 41.7741 26.0795 42.2424 26.5844C42.7095 27.088 43.271 27.4822 43.9245 27.7644C44.5779 28.0479 45.2922 28.1885 46.0699 28.1885C46.9705 28.1885 47.7557 28.0119 48.4277 27.6587C49.0986 27.3056 49.6365 26.8455 50.0439 26.2797L53.1956 29.2492C52.3658 30.2041 51.3409 30.9589 50.1234 31.516L50.121 31.5173Z" fill="white"/>
<path d="M62.7798 31.848V24.6892C62.7798 24.3174 62.7537 23.9643 62.7003 23.6285C62.6469 23.2928 62.545 22.9968 62.3959 22.7407C62.2456 22.4845 62.0468 22.2806 61.7996 22.1314C61.5524 21.9809 61.2344 21.9063 60.8456 21.9063C60.0865 21.9063 59.5039 22.1761 59.0977 22.7145C58.6915 23.2542 58.489 23.9207 58.489 24.7166V31.8492H54.1447V11.8042H58.489V20.3159H58.5424C58.843 19.7861 59.3188 19.3124 59.9722 18.897C60.6257 18.4817 61.4108 18.2741 62.3301 18.2741C63.2494 18.2741 63.986 18.4332 64.5948 18.7516C65.2035 19.0699 65.6979 19.4802 66.078 19.9851C66.4582 20.4887 66.7315 21.0682 66.8992 21.7222C67.0669 22.3763 67.1514 23.0304 67.1514 23.6845V31.8504H62.781L62.7798 31.848Z" fill="white"/>
<path d="M78.0114 31.8484V30.0192H77.9579C77.7989 30.3202 77.5915 30.6024 77.3356 30.8673C77.0797 31.1322 76.779 31.3622 76.4349 31.5562C76.0908 31.7514 75.7107 31.9093 75.2957 32.0337C74.8808 32.1568 74.4435 32.219 73.9851 32.219C73.1019 32.219 72.3565 32.0598 71.7465 31.7415C71.1378 31.4231 70.6422 31.0128 70.2633 30.5079C69.8831 30.0043 69.6098 29.4298 69.4421 28.7845C69.2744 28.1391 69.1899 27.4813 69.1899 26.8086V18.6426H73.5603V25.8013C73.5603 26.1731 73.5864 26.5263 73.6398 26.862C73.6932 27.1978 73.7938 27.4987 73.9441 27.7636C74.0945 28.0284 74.2932 28.2361 74.5404 28.3865C74.7876 28.537 75.1144 28.6116 75.5206 28.6116C76.2796 28.6116 76.8585 28.3293 77.2561 27.7636C77.6536 27.1978 77.8523 26.535 77.8523 25.7752V18.6426H82.1966V31.8472H78.0114V31.8484Z" fill="white"/>
<path d="M89.6763 21.879V26.9362C89.6763 27.5567 89.7956 28.023 90.0341 28.3339C90.2726 28.6448 90.7 28.8002 91.3186 28.8002C91.5311 28.8002 91.7559 28.7828 91.9944 28.7467C92.233 28.7119 92.4317 28.6585 92.5907 28.5876L92.6442 31.7697C92.3435 31.8754 91.9646 31.9686 91.505 32.0482C91.0453 32.1278 90.5869 32.1676 90.1273 32.1676C89.244 32.1676 88.5024 32.0569 87.9024 31.8356C87.3024 31.6142 86.8203 31.2959 86.4588 30.8781C86.0961 30.4615 85.8365 29.9654 85.6775 29.3896C85.5184 28.8139 85.4389 28.171 85.4389 27.4622V21.8802H83.3196V18.6459H85.4116V15.1729H89.6763V18.6459H92.7758V21.8802H89.6763V21.879Z" fill="white"/>
<path d="M103.371 31.8481V24.6359C103.371 24.2641 103.34 23.9109 103.278 23.5752C103.216 23.2394 103.114 22.9435 102.974 22.6873C102.832 22.4312 102.633 22.2285 102.377 22.078C102.121 21.9276 101.798 21.8529 101.411 21.8529C101.023 21.8529 100.683 21.9288 100.391 22.078C100.099 22.2285 99.8568 22.4361 99.663 22.701C99.468 22.9659 99.3226 23.2705 99.2257 23.6162C99.1288 23.9607 99.0804 24.3188 99.0804 24.6906V31.8493H94.7101V18.6448H98.9214V20.4739H98.9748C99.1338 20.1916 99.3413 19.9131 99.5972 19.6383C99.8531 19.3647 100.154 19.131 100.498 18.9357C100.842 18.7417 101.217 18.5826 101.623 18.4582C102.03 18.3351 102.462 18.2729 102.922 18.2729C103.805 18.2729 104.555 18.4321 105.173 18.7504C105.79 19.0688 106.289 19.4791 106.669 19.984C107.05 20.4876 107.323 21.0671 107.491 21.7211C107.658 22.3752 107.743 23.0293 107.743 23.6834V31.8493H103.372L103.371 31.8481Z" fill="white"/>
<path d="M122.443 25.4058V25.9356C122.443 26.1121 122.434 26.28 122.417 26.4392H112.855C112.89 26.811 113 27.1467 113.186 27.4464C113.372 27.7473 113.61 28.0072 113.902 28.2285C114.194 28.4499 114.519 28.6227 114.882 28.7458C115.244 28.8702 115.619 28.9311 116.008 28.9311C116.696 28.9311 117.279 28.803 117.756 28.5469C118.233 28.2907 118.62 27.96 118.921 27.5521L121.941 29.4608C121.322 30.3624 120.506 31.0562 119.491 31.5424C118.475 32.0286 117.296 32.2711 115.954 32.2711C114.965 32.2711 114.029 32.1157 113.147 31.8073C112.263 31.4977 111.491 31.0475 110.829 30.4556C110.166 29.8637 109.645 29.1351 109.266 28.2683C108.886 27.4029 108.697 26.4118 108.697 25.2989C108.697 24.186 108.882 23.2434 109.253 22.3692C109.624 21.4938 110.128 20.7515 110.763 20.1422C111.398 19.5328 112.149 19.0591 113.014 18.7233C113.878 18.3876 114.815 18.2197 115.821 18.2197C116.828 18.2197 117.685 18.3839 118.497 18.7097C119.31 19.0367 120.007 19.5092 120.589 20.1285C121.172 20.7477 121.627 21.4988 121.953 22.3817C122.28 23.2658 122.444 24.273 122.444 25.4046L122.443 25.4058ZM118.443 23.7358C118.443 23.0469 118.226 22.455 117.794 21.9589C117.361 21.464 116.712 21.2165 115.847 21.2165C115.424 21.2165 115.035 21.2824 114.682 21.4155C114.328 21.5485 114.02 21.7301 113.755 21.9589C113.491 22.1889 113.278 22.4588 113.119 22.7672C112.96 23.0768 112.872 23.3988 112.855 23.7346H118.444L118.443 23.7358Z" fill="white"/>
<path d="M131.207 33.8379C130.942 34.5268 130.647 35.1411 130.32 35.6807C129.993 36.2192 129.604 36.6793 129.155 37.0598C128.705 37.4403 128.175 37.7263 127.566 37.9215C126.957 38.1155 126.237 38.2137 125.407 38.2137C125.001 38.2137 124.581 38.1876 124.148 38.1341C123.715 38.0807 123.341 38.0098 123.023 37.9215L123.5 34.2632C123.712 34.334 123.946 34.3912 124.202 34.436C124.458 34.4795 124.691 34.5019 124.904 34.5019C125.574 34.5019 126.06 34.3465 126.361 34.0381C126.661 33.7285 126.917 33.2908 127.129 32.7262L127.552 31.6394L122.043 18.6475H126.864L129.804 27.1318H129.884L132.506 18.6475H137.115L131.208 33.8404L131.207 33.8379Z" fill="white"/>
<path d="M149.59 31.8483L148.133 28.1626H140.876L139.498 31.8483H134.571L142.438 13.0767H146.835L154.623 31.8483H149.59ZM144.556 18.0879L142.173 24.5304H146.887L144.556 18.0879Z" fill="white"/>
<path d="M164.889 31.848V30.1245H164.835C164.412 30.796 163.807 31.3133 163.02 31.6751C162.234 32.037 161.401 32.2185 160.517 32.2185C159.528 32.2185 158.645 32.0233 157.869 31.6353C157.091 31.2474 156.434 30.7301 155.896 30.0847C155.357 29.4393 154.947 28.6932 154.664 27.8439C154.38 26.9959 154.24 26.1118 154.24 25.1928C154.24 24.2739 154.385 23.3947 154.677 22.5541C154.969 21.7148 155.383 20.9762 155.922 20.3407C156.46 19.7041 157.113 19.2005 157.882 18.8299C158.65 18.4593 159.511 18.2728 160.465 18.2728C161.419 18.2728 162.258 18.4581 162.929 18.8299C163.599 19.2017 164.121 19.6083 164.491 20.0498H164.545V11.8042H168.889V31.8492H164.889V31.848ZM164.73 25.2202C164.73 24.7961 164.654 24.3808 164.505 23.9742C164.355 23.5676 164.142 23.2057 163.869 22.8874C163.594 22.5691 163.264 22.3129 162.875 22.1189C162.486 21.9249 162.045 21.8267 161.551 21.8267C161.056 21.8267 160.588 21.9237 160.199 22.1189C159.81 22.3141 159.484 22.5653 159.219 22.875C158.955 23.1846 158.756 23.5427 158.623 23.9493C158.49 24.356 158.424 24.7713 158.424 25.1953C158.424 25.6193 158.49 26.0396 158.623 26.455C158.756 26.8703 158.955 27.2371 159.219 27.5554C159.484 27.8738 159.81 28.1299 160.199 28.3239C160.587 28.5191 161.038 28.6149 161.551 28.6149C162.064 28.6149 162.486 28.5179 162.875 28.3239C163.263 28.1299 163.594 27.8738 163.869 27.5554C164.142 27.2371 164.355 26.8753 164.505 26.4686C164.655 26.062 164.73 25.6467 164.73 25.2227V25.2202Z" fill="white"/>
<path d="M179.616 22.5419C179.263 22.2061 178.848 21.9239 178.371 21.6938C177.894 21.4638 177.391 21.3494 176.862 21.3494C176.456 21.3494 176.081 21.4289 175.736 21.5881C175.392 21.7473 175.22 22.0208 175.22 22.4101C175.22 22.7993 175.41 23.0467 175.789 23.2059C176.168 23.3651 176.782 23.5416 177.63 23.7356C178.124 23.8413 178.623 23.9918 179.127 24.1858C179.63 24.381 180.084 24.6359 180.491 24.9542C180.897 25.2726 181.224 25.6618 181.471 26.1206C181.718 26.5807 181.842 27.1278 181.842 27.7645C181.842 28.5952 181.675 29.2977 181.339 29.8722C181.004 30.4467 180.566 30.9105 180.029 31.2637C179.489 31.6181 178.884 31.873 178.214 32.0322C177.543 32.1913 176.872 32.2709 176.2 32.2709C175.123 32.2709 174.067 32.0981 173.034 31.7536C172.001 31.4092 171.14 30.9006 170.452 30.2291L172.889 27.6576C173.277 28.0816 173.754 28.436 174.319 28.7183C174.884 29.0018 175.484 29.1423 176.12 29.1423C176.473 29.1423 176.822 29.059 177.166 28.8899C177.51 28.722 177.683 28.426 177.683 28.002C177.683 27.578 177.471 27.2957 177.047 27.1005C176.623 26.9065 175.961 26.7026 175.061 26.4912C174.601 26.3855 174.143 26.2437 173.683 26.0671C173.223 25.8906 172.813 25.6518 172.452 25.3509C172.089 25.05 171.793 24.6794 171.565 24.2367C171.335 23.7953 171.221 23.2643 171.221 22.6463C171.221 21.8505 171.388 21.1753 171.724 20.6182C172.059 20.0611 172.492 19.606 173.022 19.2528C173.551 18.8997 174.139 18.6386 174.784 18.4707C175.428 18.3028 176.068 18.2183 176.704 18.2183C177.693 18.2183 178.66 18.3737 179.605 18.6821C180.549 18.9917 181.349 19.4555 182.002 20.0735L179.619 22.5394L179.616 22.5419Z" fill="white"/>
<path d="M134.498 39.9684C134.465 39.936 134.449 39.8987 134.449 39.8552V35.6721C134.449 35.6249 134.465 35.5863 134.498 35.5565C134.53 35.5266 134.567 35.5117 134.611 35.5117H136.572C137.113 35.5117 137.514 35.6224 137.777 35.8437C138.041 36.0651 138.172 36.3784 138.172 36.7863C138.172 37.0014 138.118 37.1817 138.008 37.3297C137.899 37.4777 137.776 37.5859 137.638 37.6542C137.813 37.7363 137.961 37.8669 138.082 38.0472C138.202 38.2275 138.262 38.4289 138.262 38.6515C138.262 39.0805 138.12 39.415 137.837 39.655C137.554 39.895 137.151 40.0156 136.628 40.0156H134.61C134.567 40.0156 134.529 39.9995 134.497 39.9671L134.498 39.9684ZM136.442 37.3011C136.613 37.3011 136.744 37.2576 136.834 37.1693C136.924 37.081 136.97 36.9641 136.97 36.8186C136.97 36.6731 136.925 36.5637 136.834 36.4779C136.745 36.3921 136.613 36.3486 136.442 36.3486H135.606V37.3011H136.442ZM136.5 39.18C136.675 39.18 136.813 39.129 136.911 39.0258C137.01 38.9226 137.059 38.7983 137.059 38.6528C137.059 38.4986 137.01 38.3705 136.911 38.2698C136.813 38.1691 136.675 38.1181 136.5 38.1181H135.607V39.18H136.5Z" fill="white"/>
<path d="M139.876 39.9682C139.843 39.9358 139.827 39.8985 139.827 39.855V38.471L138.335 35.7167C138.323 35.6781 138.315 35.6545 138.315 35.6458C138.315 35.611 138.329 35.5799 138.358 35.5525C138.385 35.5252 138.418 35.5103 138.457 35.5103H139.261C139.346 35.5103 139.421 35.555 139.485 35.6458L140.405 37.3058L141.33 35.6458C141.381 35.5563 141.457 35.5103 141.555 35.5103H142.359C142.397 35.5103 142.43 35.5239 142.456 35.5525C142.482 35.5811 142.494 35.611 142.494 35.6458C142.494 35.6669 142.491 35.6906 142.482 35.7167L140.99 38.471V39.855C140.99 39.9022 140.974 39.9408 140.941 39.9706C140.909 40.0005 140.869 40.0154 140.822 40.0154H139.986C139.944 40.0154 139.905 39.9992 139.873 39.9669L139.876 39.9682Z" fill="white"/>
<path d="M144.209 39.9684C144.176 39.936 144.16 39.8987 144.16 39.8552V35.6721C144.16 35.6249 144.176 35.5863 144.209 35.5565C144.241 35.5266 144.278 35.5117 144.322 35.5117H145.994C146.624 35.5117 147.112 35.6622 147.46 35.9619C147.806 36.2628 147.989 36.698 148.006 37.2675C148.01 37.3919 148.012 37.5573 148.012 37.7637C148.012 37.9701 148.01 38.133 148.006 38.2524C147.985 38.8492 147.808 39.2919 147.476 39.5817C147.144 39.8714 146.661 40.0156 146.026 40.0156H144.323C144.281 40.0156 144.242 39.9995 144.21 39.9671L144.209 39.9684ZM145.994 39.0905C146.277 39.0905 146.484 39.0233 146.617 38.8878C146.75 38.7522 146.821 38.5371 146.83 38.2412C146.839 38.1168 146.842 37.9564 146.842 37.7587C146.842 37.561 146.839 37.4031 146.83 37.2824C146.821 36.9952 146.745 36.7826 146.601 36.6458C146.457 36.509 146.245 36.4394 145.961 36.4394H145.319V39.0905H145.994Z" fill="white"/>
<path d="M148.588 39.9684C148.555 39.936 148.539 39.8987 148.539 39.8552V35.6721C148.539 35.6249 148.555 35.5863 148.588 35.5565C148.62 35.5266 148.657 35.5117 148.701 35.5117H149.563C149.61 35.5117 149.65 35.5266 149.682 35.5565C149.714 35.5863 149.731 35.6249 149.731 35.6721V39.8552C149.731 39.9025 149.714 39.941 149.682 39.9709C149.65 40.0007 149.61 40.0156 149.563 40.0156H148.701C148.658 40.0156 148.62 39.9995 148.588 39.9671V39.9684Z" fill="white"/>
<path d="M150.826 39.6276C150.48 39.3254 150.295 38.8952 150.273 38.3369C150.268 38.2125 150.267 38.0148 150.267 37.745C150.267 37.4751 150.27 37.2774 150.273 37.1531C150.295 36.6084 150.482 36.1881 150.836 35.8922C151.19 35.5962 151.669 35.4482 152.273 35.4482C152.681 35.4482 153.035 35.5154 153.338 35.6472C153.64 35.7803 153.871 35.9494 154.033 36.1558C154.193 36.3622 154.277 36.5736 154.286 36.7925C154.286 36.831 154.272 36.8633 154.244 36.8894C154.216 36.9156 154.183 36.928 154.144 36.928H153.205C153.163 36.928 153.128 36.9218 153.102 36.9081C153.076 36.8944 153.055 36.872 153.037 36.8372C152.982 36.7129 152.893 36.6047 152.774 36.5127C152.654 36.4206 152.487 36.3746 152.272 36.3746C151.762 36.3746 151.495 36.6445 151.469 37.1854C151.464 37.306 151.462 37.4925 151.462 37.745C151.462 37.9974 151.465 38.1802 151.469 38.3045C151.495 38.8703 151.768 39.1538 152.291 39.1538C152.544 39.1538 152.747 39.0879 152.898 38.9574C153.05 38.8268 153.127 38.6254 153.127 38.3555V38.2337H152.523C152.476 38.2337 152.437 38.2175 152.408 38.1852C152.378 38.1528 152.363 38.113 152.363 38.0658V37.5895C152.363 37.5423 152.378 37.5025 152.408 37.4701C152.437 37.4378 152.476 37.4217 152.523 37.4217H154.143C154.19 37.4217 154.229 37.4378 154.259 37.4701C154.288 37.5025 154.303 37.5423 154.303 37.5895V38.3232C154.303 38.6875 154.22 39.0021 154.052 39.2657C153.886 39.5294 153.649 39.7308 153.342 39.8713C153.035 40.0106 152.678 40.0802 152.271 40.0802C151.654 40.0802 151.172 39.9285 150.825 39.6264L150.826 39.6276Z" fill="white"/>
<path d="M154.874 39.9684C154.841 39.936 154.825 39.8987 154.825 39.8552V35.6721C154.825 35.6249 154.841 35.5863 154.874 35.5565C154.906 35.5266 154.943 35.5117 154.987 35.5117H155.849C155.896 35.5117 155.936 35.5266 155.968 35.5565C156 35.5863 156.017 35.6249 156.017 35.6721V39.8552C156.017 39.9025 156 39.941 155.968 39.9709C155.936 40.0007 155.896 40.0156 155.849 40.0156H154.987C154.944 40.0156 154.906 39.9995 154.874 39.9671V39.9684Z" fill="white"/>
<path d="M157.748 39.9682C157.716 39.9358 157.7 39.8985 157.7 39.855V36.5212H156.556C156.512 36.5212 156.475 36.505 156.443 36.4727C156.41 36.4404 156.394 36.4031 156.394 36.3596V35.6707C156.394 35.6234 156.41 35.5849 156.443 35.555C156.475 35.5252 156.512 35.5103 156.556 35.5103H160.014C160.061 35.5103 160.1 35.5252 160.13 35.555C160.16 35.5849 160.174 35.6234 160.174 35.6707V36.3596C160.174 36.4068 160.16 36.4454 160.13 36.4752C160.1 36.505 160.061 36.52 160.014 36.52H158.87V39.8538C158.87 39.8973 158.855 39.9346 158.825 39.9669C158.795 39.9992 158.757 40.0154 158.71 40.0154H157.861C157.818 40.0154 157.781 39.9992 157.748 39.9669V39.9682Z" fill="white"/>
<path d="M161.246 39.9009C160.955 39.7803 160.736 39.6236 160.588 39.4284C160.44 39.2331 160.362 39.0193 160.353 38.788C160.353 38.7532 160.367 38.7221 160.396 38.6947C160.424 38.6674 160.456 38.6524 160.495 38.6524H161.305C161.356 38.6524 161.398 38.6624 161.43 38.681C161.463 38.6997 161.496 38.7295 161.53 38.7681C161.586 38.88 161.675 38.972 161.799 39.0454C161.923 39.1187 162.089 39.1548 162.294 39.1548C162.538 39.1548 162.725 39.1163 162.853 39.0392C162.981 38.9621 163.045 38.8564 163.045 38.7233C163.045 38.6288 163.012 38.5517 162.946 38.492C162.879 38.4323 162.776 38.3789 162.634 38.3316C162.492 38.2844 162.283 38.2309 162.004 38.1712C161.49 38.0643 161.105 37.9064 160.85 37.6987C160.596 37.491 160.468 37.1938 160.468 36.8071C160.468 36.546 160.541 36.311 160.686 36.1058C160.832 35.8994 161.04 35.739 161.31 35.6233C161.579 35.5077 161.895 35.4492 162.255 35.4492C162.615 35.4492 162.952 35.5139 163.225 35.642C163.499 35.77 163.709 35.9329 163.853 36.1282C163.997 36.3234 164.073 36.5149 164.081 36.7039C164.081 36.7424 164.069 36.7748 164.043 36.8009C164.017 36.827 163.984 36.8394 163.946 36.8394H163.097C163.047 36.8394 163.004 36.8307 162.972 36.8133C162.94 36.7959 162.911 36.7686 162.885 36.73C162.859 36.6318 162.789 36.5472 162.676 36.4788C162.563 36.4104 162.423 36.3756 162.255 36.3756C162.063 36.3756 161.915 36.4104 161.812 36.4788C161.709 36.5472 161.658 36.6479 161.658 36.781C161.658 36.8705 161.686 36.9464 161.745 37.0061C161.803 37.0658 161.896 37.1205 162.028 37.1702C162.158 37.2199 162.346 37.2697 162.591 37.3219C162.989 37.3953 163.307 37.4861 163.546 37.5955C163.783 37.7049 163.958 37.8467 164.07 38.0208C164.182 38.1948 164.237 38.4124 164.237 38.6736C164.237 38.9608 164.155 39.2108 163.989 39.4234C163.824 39.636 163.596 39.7989 163.301 39.9121C163.008 40.0253 162.673 40.0825 162.295 40.0825C161.887 40.0825 161.538 40.0228 161.246 39.9021V39.9009Z" fill="white"/>
<path d="M164.705 39.9684C164.673 39.936 164.657 39.8987 164.657 39.8552V35.6721C164.657 35.6249 164.673 35.5863 164.705 35.5565C164.737 35.5266 164.775 35.5117 164.818 35.5117H166.618C167.167 35.5117 167.598 35.6386 167.914 35.891C168.229 36.1447 168.386 36.5127 168.386 36.9977C168.386 37.4826 168.229 37.8395 167.916 38.082C167.603 38.3245 167.171 38.4451 166.618 38.4451H165.853V39.854C165.853 39.9012 165.837 39.9398 165.804 39.9696C165.772 39.9995 165.732 40.0144 165.685 40.0144H164.817C164.775 40.0144 164.736 39.9982 164.704 39.9659L164.705 39.9684ZM166.586 37.5585C166.775 37.5585 166.922 37.51 167.029 37.4143C167.136 37.3173 167.19 37.1755 167.19 36.9865C167.19 36.8099 167.139 36.6706 167.038 36.565C166.937 36.4593 166.786 36.407 166.585 36.407H165.833V37.5585H166.585H166.586Z" fill="white"/>
<path d="M168.176 39.9756C168.149 39.9482 168.134 39.9171 168.134 39.8823C168.134 39.8562 168.136 39.8375 168.14 39.8239L169.65 35.693C169.663 35.642 169.691 35.5985 169.734 35.5637C169.776 35.5289 169.832 35.5127 169.9 35.5127H170.852C170.92 35.5127 170.976 35.5301 171.018 35.5637C171.06 35.5985 171.089 35.6408 171.101 35.693L172.606 39.8239L172.618 39.8823C172.618 39.9171 172.605 39.9482 172.576 39.9756C172.547 40.0029 172.515 40.0178 172.477 40.0178H171.685C171.582 40.0178 171.514 39.9731 171.479 39.8823L171.228 39.2257H169.511L169.267 39.8823C169.232 39.9718 169.161 40.0178 169.054 40.0178H168.263C168.228 40.0178 168.197 40.0042 168.17 39.9756H168.176ZM170.976 38.2981L170.378 36.5995L169.781 38.2981H170.976Z" fill="white"/>
<path d="M173.015 39.9684C172.982 39.936 172.966 39.8987 172.966 39.8552V35.6721C172.966 35.6249 172.982 35.5863 173.015 35.5565C173.047 35.5266 173.084 35.5117 173.128 35.5117H174.877C175.438 35.5117 175.877 35.6398 176.191 35.8947C176.507 36.1496 176.663 36.5115 176.663 36.979C176.663 37.28 176.592 37.5349 176.451 37.745C176.309 37.9552 176.114 38.1156 175.866 38.2275L176.746 39.8105C176.759 39.8366 176.766 39.8602 176.766 39.8813C176.766 39.9161 176.753 39.9472 176.724 39.9746C176.697 40.0019 176.666 40.0169 176.631 40.0169H175.776C175.652 40.0169 175.564 39.9584 175.513 39.8428L174.78 38.4265H174.124V39.8552C174.124 39.9025 174.108 39.941 174.075 39.9709C174.043 40.0007 174.003 40.0156 173.956 40.0156H173.126C173.084 40.0156 173.046 39.9995 173.013 39.9671L173.015 39.9684ZM174.863 37.5137C175.061 37.5137 175.21 37.4652 175.313 37.3695C175.416 37.2725 175.467 37.1394 175.467 36.9678C175.467 36.7962 175.416 36.6595 175.315 36.5587C175.215 36.458 175.063 36.407 174.862 36.407H174.123V37.5137H174.862H174.863Z" fill="white"/>
<path d="M177.221 39.9684C177.189 39.936 177.172 39.8987 177.172 39.8552V35.6721C177.172 35.6249 177.189 35.5863 177.221 35.5565C177.253 35.5266 177.291 35.5117 177.334 35.5117H178.144C178.191 35.5117 178.23 35.5266 178.259 35.5565C178.289 35.5863 178.304 35.6249 178.304 35.6721V37.1009L179.493 35.6336C179.544 35.5515 179.628 35.5117 179.744 35.5117H180.67C180.708 35.5117 180.74 35.5254 180.766 35.554C180.792 35.5826 180.805 35.6124 180.805 35.6473C180.805 35.6771 180.799 35.7032 180.785 35.7244L179.242 37.6679L180.901 39.8042C180.918 39.8216 180.927 39.8478 180.927 39.8813C180.927 39.9149 180.914 39.9472 180.888 39.9746C180.862 40.0019 180.83 40.0169 180.791 40.0169H179.833C179.73 40.0169 179.645 39.9746 179.576 39.8875L178.303 38.2984V39.8552C178.303 39.9025 178.288 39.941 178.258 39.9709C178.228 40.0007 178.19 40.0156 178.143 40.0156H177.333C177.291 40.0156 177.252 39.9995 177.22 39.9671L177.221 39.9684Z" fill="white"/>
<path d="M50.121 31.5173C48.9023 32.0744 47.4985 32.3529 45.9096 32.3529C44.4611 32.3529 43.1232 32.1141 41.8971 31.6366C40.6697 31.1591 39.6063 30.4827 38.7057 29.6085C37.805 28.7343 37.0982 27.6861 36.5863 26.4662C36.0745 25.2464 35.8186 23.9034 35.8186 22.4361C35.8186 20.9688 36.0795 19.5723 36.6 18.3525C37.1205 17.1326 37.8398 16.0943 38.7591 15.2375C39.6771 14.3808 40.7542 13.7217 41.9902 13.2616C43.2263 12.8028 44.5593 12.5728 45.9904 12.5728C47.3146 12.5728 48.6166 12.8078 49.8973 13.2753C51.1769 13.7441 52.2154 14.4293 53.0093 15.3296L49.9371 18.4047C49.5135 17.8215 48.9569 17.3888 48.2687 17.1053C47.5805 16.823 46.8736 16.6812 46.1494 16.6812C45.3543 16.6812 44.6264 16.8267 43.9642 17.1189C43.3021 17.4112 42.7319 17.8128 42.2561 18.3251C41.7791 18.8374 41.4089 19.443 41.143 20.1419C40.8784 20.8407 40.7455 21.6042 40.7455 22.4348C40.7455 23.2655 40.8784 24.0613 41.143 24.7676C41.4076 25.4752 41.7741 26.0795 42.2424 26.5844C42.7095 27.088 43.271 27.4822 43.9245 27.7644C44.5779 28.0479 45.2922 28.1885 46.0699 28.1885C46.9705 28.1885 47.7557 28.0119 48.4277 27.6587C49.0986 27.3056 49.6365 26.8455 50.0439 26.2797L53.1956 29.2492C52.3658 30.2041 51.3409 30.9589 50.1234 31.516L50.121 31.5173Z" fill="white"/>
<path d="M62.7798 31.848V24.6892C62.7798 24.3174 62.7537 23.9643 62.7003 23.6285C62.6469 23.2928 62.545 22.9968 62.3959 22.7407C62.2456 22.4845 62.0468 22.2806 61.7996 22.1314C61.5524 21.9809 61.2344 21.9063 60.8456 21.9063C60.0865 21.9063 59.5039 22.1761 59.0977 22.7145C58.6915 23.2542 58.489 23.9207 58.489 24.7166V31.8492H54.1447V11.8042H58.489V20.3159H58.5424C58.843 19.7861 59.3188 19.3124 59.9722 18.897C60.6257 18.4817 61.4108 18.2741 62.3301 18.2741C63.2494 18.2741 63.986 18.4332 64.5948 18.7516C65.2035 19.0699 65.6979 19.4802 66.078 19.9851C66.4582 20.4887 66.7315 21.0682 66.8992 21.7222C67.0669 22.3763 67.1514 23.0304 67.1514 23.6845V31.8504H62.781L62.7798 31.848Z" fill="white"/>
<path d="M78.0114 31.8484V30.0192H77.9579C77.7989 30.3202 77.5915 30.6024 77.3356 30.8673C77.0797 31.1322 76.779 31.3622 76.4349 31.5562C76.0908 31.7514 75.7107 31.9093 75.2957 32.0337C74.8808 32.1568 74.4435 32.219 73.9851 32.219C73.1019 32.219 72.3565 32.0598 71.7465 31.7415C71.1378 31.4231 70.6422 31.0128 70.2633 30.5079C69.8831 30.0043 69.6098 29.4298 69.4421 28.7845C69.2744 28.1391 69.1899 27.4813 69.1899 26.8086V18.6426H73.5603V25.8013C73.5603 26.1731 73.5864 26.5263 73.6398 26.862C73.6932 27.1978 73.7938 27.4987 73.9441 27.7636C74.0945 28.0284 74.2932 28.2361 74.5404 28.3865C74.7876 28.537 75.1144 28.6116 75.5206 28.6116C76.2796 28.6116 76.8585 28.3293 77.2561 27.7636C77.6536 27.1978 77.8523 26.535 77.8523 25.7752V18.6426H82.1966V31.8472H78.0114V31.8484Z" fill="white"/>
<path d="M89.6763 21.879V26.9362C89.6763 27.5567 89.7956 28.023 90.0341 28.3339C90.2726 28.6448 90.7 28.8002 91.3186 28.8002C91.5311 28.8002 91.7559 28.7828 91.9944 28.7467C92.233 28.7119 92.4317 28.6585 92.5907 28.5876L92.6442 31.7697C92.3435 31.8754 91.9646 31.9686 91.505 32.0482C91.0453 32.1278 90.5869 32.1676 90.1273 32.1676C89.244 32.1676 88.5024 32.0569 87.9024 31.8356C87.3024 31.6142 86.8203 31.2959 86.4588 30.8781C86.0961 30.4615 85.8365 29.9654 85.6775 29.3896C85.5184 28.8139 85.4389 28.171 85.4389 27.4622V21.8802H83.3196V18.6459H85.4116V15.1729H89.6763V18.6459H92.7758V21.8802H89.6763V21.879Z" fill="white"/>
<path d="M103.371 31.8481V24.6359C103.371 24.2641 103.34 23.9109 103.278 23.5752C103.216 23.2394 103.114 22.9435 102.974 22.6873C102.832 22.4312 102.633 22.2285 102.377 22.078C102.121 21.9276 101.798 21.8529 101.411 21.8529C101.023 21.8529 100.683 21.9288 100.391 22.078C100.099 22.2285 99.8568 22.4361 99.663 22.701C99.468 22.9659 99.3226 23.2705 99.2257 23.6162C99.1288 23.9607 99.0804 24.3188 99.0804 24.6906V31.8493H94.7101V18.6448H98.9214V20.4739H98.9748C99.1338 20.1916 99.3413 19.9131 99.5972 19.6383C99.8531 19.3647 100.154 19.131 100.498 18.9357C100.842 18.7417 101.217 18.5826 101.623 18.4582C102.03 18.3351 102.462 18.2729 102.922 18.2729C103.805 18.2729 104.555 18.4321 105.173 18.7504C105.79 19.0688 106.289 19.4791 106.669 19.984C107.05 20.4876 107.323 21.0671 107.491 21.7211C107.658 22.3752 107.743 23.0293 107.743 23.6834V31.8493H103.372L103.371 31.8481Z" fill="white"/>
<path d="M122.443 25.4058V25.9356C122.443 26.1121 122.434 26.28 122.417 26.4392H112.855C112.89 26.811 113 27.1467 113.186 27.4464C113.372 27.7473 113.61 28.0072 113.902 28.2285C114.194 28.4499 114.519 28.6227 114.882 28.7458C115.244 28.8702 115.619 28.9311 116.008 28.9311C116.696 28.9311 117.279 28.803 117.756 28.5469C118.233 28.2907 118.62 27.96 118.921 27.5521L121.941 29.4608C121.322 30.3624 120.506 31.0562 119.491 31.5424C118.475 32.0286 117.296 32.2711 115.954 32.2711C114.965 32.2711 114.029 32.1157 113.147 31.8073C112.263 31.4977 111.491 31.0475 110.829 30.4556C110.166 29.8637 109.645 29.1351 109.266 28.2683C108.886 27.4029 108.697 26.4118 108.697 25.2989C108.697 24.186 108.882 23.2434 109.253 22.3692C109.624 21.4938 110.128 20.7515 110.763 20.1422C111.398 19.5328 112.149 19.0591 113.014 18.7233C113.878 18.3876 114.815 18.2197 115.821 18.2197C116.828 18.2197 117.685 18.3839 118.497 18.7097C119.31 19.0367 120.007 19.5092 120.589 20.1285C121.172 20.7477 121.627 21.4988 121.953 22.3817C122.28 23.2658 122.444 24.273 122.444 25.4046L122.443 25.4058ZM118.443 23.7358C118.443 23.0469 118.226 22.455 117.794 21.9589C117.361 21.464 116.712 21.2165 115.847 21.2165C115.424 21.2165 115.035 21.2824 114.682 21.4155C114.328 21.5485 114.02 21.7301 113.755 21.9589C113.491 22.1889 113.278 22.4588 113.119 22.7672C112.96 23.0768 112.872 23.3988 112.855 23.7346H118.444L118.443 23.7358Z" fill="white"/>
<path d="M131.207 33.8379C130.942 34.5268 130.647 35.1411 130.32 35.6807C129.993 36.2192 129.604 36.6793 129.155 37.0598C128.705 37.4403 128.175 37.7263 127.566 37.9215C126.957 38.1155 126.237 38.2137 125.407 38.2137C125.001 38.2137 124.581 38.1876 124.148 38.1341C123.715 38.0807 123.341 38.0098 123.023 37.9215L123.5 34.2632C123.712 34.334 123.946 34.3912 124.202 34.436C124.458 34.4795 124.691 34.5019 124.904 34.5019C125.574 34.5019 126.06 34.3465 126.361 34.0381C126.661 33.7285 126.917 33.2908 127.129 32.7262L127.552 31.6394L122.043 18.6475H126.864L129.804 27.1318H129.884L132.506 18.6475H137.115L131.208 33.8404L131.207 33.8379Z" fill="white"/>
<path d="M149.59 31.8483L148.133 28.1626H140.876L139.498 31.8483H134.571L142.438 13.0767H146.835L154.623 31.8483H149.59ZM144.556 18.0879L142.173 24.5304H146.887L144.556 18.0879Z" fill="white"/>
<path d="M164.889 31.848V30.1245H164.835C164.412 30.796 163.807 31.3133 163.02 31.6751C162.234 32.037 161.401 32.2185 160.517 32.2185C159.528 32.2185 158.645 32.0233 157.869 31.6353C157.091 31.2474 156.434 30.7301 155.896 30.0847C155.357 29.4393 154.947 28.6932 154.664 27.8439C154.38 26.9959 154.24 26.1118 154.24 25.1928C154.24 24.2739 154.385 23.3947 154.677 22.5541C154.969 21.7148 155.383 20.9762 155.922 20.3407C156.46 19.7041 157.113 19.2005 157.882 18.8299C158.65 18.4593 159.511 18.2728 160.465 18.2728C161.419 18.2728 162.258 18.4581 162.929 18.8299C163.599 19.2017 164.121 19.6083 164.491 20.0498H164.545V11.8042H168.889V31.8492H164.889V31.848ZM164.73 25.2202C164.73 24.7961 164.654 24.3808 164.505 23.9742C164.355 23.5676 164.142 23.2057 163.869 22.8874C163.594 22.5691 163.264 22.3129 162.875 22.1189C162.486 21.9249 162.045 21.8267 161.551 21.8267C161.056 21.8267 160.588 21.9237 160.199 22.1189C159.81 22.3141 159.484 22.5653 159.219 22.875C158.955 23.1846 158.756 23.5427 158.623 23.9493C158.49 24.356 158.424 24.7713 158.424 25.1953C158.424 25.6193 158.49 26.0396 158.623 26.455C158.756 26.8703 158.955 27.2371 159.219 27.5554C159.484 27.8738 159.81 28.1299 160.199 28.3239C160.587 28.5191 161.038 28.6149 161.551 28.6149C162.064 28.6149 162.486 28.5179 162.875 28.3239C163.263 28.1299 163.594 27.8738 163.869 27.5554C164.142 27.2371 164.355 26.8753 164.505 26.4686C164.655 26.062 164.73 25.6467 164.73 25.2227V25.2202Z" fill="white"/>
<path d="M179.616 22.5419C179.263 22.2061 178.848 21.9239 178.371 21.6938C177.894 21.4638 177.391 21.3494 176.862 21.3494C176.456 21.3494 176.081 21.4289 175.736 21.5881C175.392 21.7473 175.22 22.0208 175.22 22.4101C175.22 22.7993 175.41 23.0467 175.789 23.2059C176.168 23.3651 176.782 23.5416 177.63 23.7356C178.124 23.8413 178.623 23.9918 179.127 24.1858C179.63 24.381 180.084 24.6359 180.491 24.9542C180.897 25.2726 181.224 25.6618 181.471 26.1206C181.718 26.5807 181.842 27.1278 181.842 27.7645C181.842 28.5952 181.675 29.2977 181.339 29.8722C181.004 30.4467 180.566 30.9105 180.029 31.2637C179.489 31.6181 178.884 31.873 178.214 32.0322C177.543 32.1913 176.872 32.2709 176.2 32.2709C175.123 32.2709 174.067 32.0981 173.034 31.7536C172.001 31.4092 171.14 30.9006 170.452 30.2291L172.889 27.6576C173.277 28.0816 173.754 28.436 174.319 28.7183C174.884 29.0018 175.484 29.1423 176.12 29.1423C176.473 29.1423 176.822 29.059 177.166 28.8899C177.51 28.722 177.683 28.426 177.683 28.002C177.683 27.578 177.471 27.2957 177.047 27.1005C176.623 26.9065 175.961 26.7026 175.061 26.4912C174.601 26.3855 174.143 26.2437 173.683 26.0671C173.223 25.8906 172.813 25.6518 172.452 25.3509C172.089 25.05 171.793 24.6794 171.565 24.2367C171.335 23.7953 171.221 23.2643 171.221 22.6463C171.221 21.8505 171.388 21.1753 171.724 20.6182C172.059 20.0611 172.492 19.606 173.022 19.2528C173.551 18.8997 174.139 18.6386 174.784 18.4707C175.428 18.3028 176.068 18.2183 176.704 18.2183C177.693 18.2183 178.66 18.3737 179.605 18.6821C180.549 18.9917 181.349 19.4555 182.002 20.0735L179.619 22.5394L179.616 22.5419Z" fill="white"/>
<path d="M134.498 39.9684C134.465 39.936 134.449 39.8987 134.449 39.8552V35.6721C134.449 35.6249 134.465 35.5863 134.498 35.5565C134.53 35.5266 134.567 35.5117 134.611 35.5117H136.572C137.113 35.5117 137.514 35.6224 137.777 35.8437C138.041 36.0651 138.172 36.3784 138.172 36.7863C138.172 37.0014 138.118 37.1817 138.008 37.3297C137.899 37.4777 137.776 37.5859 137.638 37.6542C137.813 37.7363 137.961 37.8669 138.082 38.0472C138.202 38.2275 138.262 38.4289 138.262 38.6515C138.262 39.0805 138.12 39.415 137.837 39.655C137.554 39.895 137.151 40.0156 136.628 40.0156H134.61C134.567 40.0156 134.529 39.9995 134.497 39.9671L134.498 39.9684ZM136.442 37.3011C136.613 37.3011 136.744 37.2576 136.834 37.1693C136.924 37.081 136.97 36.9641 136.97 36.8186C136.97 36.6731 136.925 36.5637 136.834 36.4779C136.745 36.3921 136.613 36.3486 136.442 36.3486H135.606V37.3011H136.442ZM136.5 39.18C136.675 39.18 136.813 39.129 136.911 39.0258C137.01 38.9226 137.059 38.7983 137.059 38.6528C137.059 38.4986 137.01 38.3705 136.911 38.2698C136.813 38.1691 136.675 38.1181 136.5 38.1181H135.607V39.18H136.5Z" fill="white"/>
<path d="M139.876 39.9682C139.843 39.9358 139.827 39.8985 139.827 39.855V38.471L138.335 35.7167C138.323 35.6781 138.315 35.6545 138.315 35.6458C138.315 35.611 138.329 35.5799 138.358 35.5525C138.385 35.5252 138.418 35.5103 138.457 35.5103H139.261C139.346 35.5103 139.421 35.555 139.485 35.6458L140.405 37.3058L141.33 35.6458C141.381 35.5563 141.457 35.5103 141.555 35.5103H142.359C142.397 35.5103 142.43 35.5239 142.456 35.5525C142.482 35.5811 142.494 35.611 142.494 35.6458C142.494 35.6669 142.491 35.6906 142.482 35.7167L140.99 38.471V39.855C140.99 39.9022 140.974 39.9408 140.941 39.9706C140.909 40.0005 140.869 40.0154 140.822 40.0154H139.986C139.944 40.0154 139.905 39.9992 139.873 39.9669L139.876 39.9682Z" fill="white"/>
<path d="M144.209 39.9684C144.176 39.936 144.16 39.8987 144.16 39.8552V35.6721C144.16 35.6249 144.176 35.5863 144.209 35.5565C144.241 35.5266 144.278 35.5117 144.322 35.5117H145.994C146.624 35.5117 147.112 35.6622 147.46 35.9619C147.806 36.2628 147.989 36.698 148.006 37.2675C148.01 37.3919 148.012 37.5573 148.012 37.7637C148.012 37.9701 148.01 38.133 148.006 38.2524C147.985 38.8492 147.808 39.2919 147.476 39.5817C147.144 39.8714 146.661 40.0156 146.026 40.0156H144.323C144.281 40.0156 144.242 39.9995 144.21 39.9671L144.209 39.9684ZM145.994 39.0905C146.277 39.0905 146.484 39.0233 146.617 38.8878C146.75 38.7522 146.821 38.5371 146.83 38.2412C146.839 38.1168 146.842 37.9564 146.842 37.7587C146.842 37.561 146.839 37.4031 146.83 37.2824C146.821 36.9952 146.745 36.7826 146.601 36.6458C146.457 36.509 146.245 36.4394 145.961 36.4394H145.319V39.0905H145.994Z" fill="white"/>
<path d="M148.588 39.9684C148.555 39.936 148.539 39.8987 148.539 39.8552V35.6721C148.539 35.6249 148.555 35.5863 148.588 35.5565C148.62 35.5266 148.657 35.5117 148.701 35.5117H149.563C149.61 35.5117 149.65 35.5266 149.682 35.5565C149.714 35.5863 149.731 35.6249 149.731 35.6721V39.8552C149.731 39.9025 149.714 39.941 149.682 39.9709C149.65 40.0007 149.61 40.0156 149.563 40.0156H148.701C148.658 40.0156 148.62 39.9995 148.588 39.9671V39.9684Z" fill="white"/>
<path d="M150.826 39.6276C150.48 39.3254 150.295 38.8952 150.273 38.3369C150.268 38.2125 150.267 38.0148 150.267 37.745C150.267 37.4751 150.27 37.2774 150.273 37.1531C150.295 36.6084 150.482 36.1881 150.836 35.8922C151.19 35.5962 151.669 35.4482 152.273 35.4482C152.681 35.4482 153.035 35.5154 153.338 35.6472C153.64 35.7803 153.871 35.9494 154.033 36.1558C154.193 36.3622 154.277 36.5736 154.286 36.7925C154.286 36.831 154.272 36.8633 154.244 36.8894C154.216 36.9156 154.183 36.928 154.144 36.928H153.205C153.163 36.928 153.128 36.9218 153.102 36.9081C153.076 36.8944 153.055 36.872 153.037 36.8372C152.982 36.7129 152.893 36.6047 152.774 36.5127C152.654 36.4206 152.487 36.3746 152.272 36.3746C151.762 36.3746 151.495 36.6445 151.469 37.1854C151.464 37.306 151.462 37.4925 151.462 37.745C151.462 37.9974 151.465 38.1802 151.469 38.3045C151.495 38.8703 151.768 39.1538 152.291 39.1538C152.544 39.1538 152.747 39.0879 152.898 38.9574C153.05 38.8268 153.127 38.6254 153.127 38.3555V38.2337H152.523C152.476 38.2337 152.437 38.2175 152.408 38.1852C152.378 38.1528 152.363 38.113 152.363 38.0658V37.5895C152.363 37.5423 152.378 37.5025 152.408 37.4701C152.437 37.4378 152.476 37.4217 152.523 37.4217H154.143C154.19 37.4217 154.229 37.4378 154.259 37.4701C154.288 37.5025 154.303 37.5423 154.303 37.5895V38.3232C154.303 38.6875 154.22 39.0021 154.052 39.2657C153.886 39.5294 153.649 39.7308 153.342 39.8713C153.035 40.0106 152.678 40.0802 152.271 40.0802C151.654 40.0802 151.172 39.9285 150.825 39.6264L150.826 39.6276Z" fill="white"/>
<path d="M154.874 39.9684C154.841 39.936 154.825 39.8987 154.825 39.8552V35.6721C154.825 35.6249 154.841 35.5863 154.874 35.5565C154.906 35.5266 154.943 35.5117 154.987 35.5117H155.849C155.896 35.5117 155.936 35.5266 155.968 35.5565C156 35.5863 156.017 35.6249 156.017 35.6721V39.8552C156.017 39.9025 156 39.941 155.968 39.9709C155.936 40.0007 155.896 40.0156 155.849 40.0156H154.987C154.944 40.0156 154.906 39.9995 154.874 39.9671V39.9684Z" fill="white"/>
<path d="M157.748 39.9682C157.716 39.9358 157.7 39.8985 157.7 39.855V36.5212H156.556C156.512 36.5212 156.475 36.505 156.443 36.4727C156.41 36.4404 156.394 36.4031 156.394 36.3596V35.6707C156.394 35.6234 156.41 35.5849 156.443 35.555C156.475 35.5252 156.512 35.5103 156.556 35.5103H160.014C160.061 35.5103 160.1 35.5252 160.13 35.555C160.16 35.5849 160.174 35.6234 160.174 35.6707V36.3596C160.174 36.4068 160.16 36.4454 160.13 36.4752C160.1 36.505 160.061 36.52 160.014 36.52H158.87V39.8538C158.87 39.8973 158.855 39.9346 158.825 39.9669C158.795 39.9992 158.757 40.0154 158.71 40.0154H157.861C157.818 40.0154 157.781 39.9992 157.748 39.9669V39.9682Z" fill="white"/>
<path d="M161.246 39.9009C160.955 39.7803 160.736 39.6236 160.588 39.4284C160.44 39.2331 160.362 39.0193 160.353 38.788C160.353 38.7532 160.367 38.7221 160.396 38.6947C160.424 38.6674 160.456 38.6524 160.495 38.6524H161.305C161.356 38.6524 161.398 38.6624 161.43 38.681C161.463 38.6997 161.496 38.7295 161.53 38.7681C161.586 38.88 161.675 38.972 161.799 39.0454C161.923 39.1187 162.089 39.1548 162.294 39.1548C162.538 39.1548 162.725 39.1163 162.853 39.0392C162.981 38.9621 163.045 38.8564 163.045 38.7233C163.045 38.6288 163.012 38.5517 162.946 38.492C162.879 38.4323 162.776 38.3789 162.634 38.3316C162.492 38.2844 162.283 38.2309 162.004 38.1712C161.49 38.0643 161.105 37.9064 160.85 37.6987C160.596 37.491 160.468 37.1938 160.468 36.8071C160.468 36.546 160.541 36.311 160.686 36.1058C160.832 35.8994 161.04 35.739 161.31 35.6233C161.579 35.5077 161.895 35.4492 162.255 35.4492C162.615 35.4492 162.952 35.5139 163.225 35.642C163.499 35.77 163.709 35.9329 163.853 36.1282C163.997 36.3234 164.073 36.5149 164.081 36.7039C164.081 36.7424 164.069 36.7748 164.043 36.8009C164.017 36.827 163.984 36.8394 163.946 36.8394H163.097C163.047 36.8394 163.004 36.8307 162.972 36.8133C162.94 36.7959 162.911 36.7686 162.885 36.73C162.859 36.6318 162.789 36.5472 162.676 36.4788C162.563 36.4104 162.423 36.3756 162.255 36.3756C162.063 36.3756 161.915 36.4104 161.812 36.4788C161.709 36.5472 161.658 36.6479 161.658 36.781C161.658 36.8705 161.686 36.9464 161.745 37.0061C161.803 37.0658 161.896 37.1205 162.028 37.1702C162.158 37.2199 162.346 37.2697 162.591 37.3219C162.989 37.3953 163.307 37.4861 163.546 37.5955C163.783 37.7049 163.958 37.8467 164.07 38.0208C164.182 38.1948 164.237 38.4124 164.237 38.6736C164.237 38.9608 164.155 39.2108 163.989 39.4234C163.824 39.636 163.596 39.7989 163.301 39.9121C163.008 40.0253 162.673 40.0825 162.295 40.0825C161.887 40.0825 161.538 40.0228 161.246 39.9021V39.9009Z" fill="white"/>
<path d="M164.705 39.9684C164.673 39.936 164.657 39.8987 164.657 39.8552V35.6721C164.657 35.6249 164.673 35.5863 164.705 35.5565C164.737 35.5266 164.775 35.5117 164.818 35.5117H166.618C167.167 35.5117 167.598 35.6386 167.914 35.891C168.229 36.1447 168.386 36.5127 168.386 36.9977C168.386 37.4826 168.229 37.8395 167.916 38.082C167.603 38.3245 167.171 38.4451 166.618 38.4451H165.853V39.854C165.853 39.9012 165.837 39.9398 165.804 39.9696C165.772 39.9995 165.732 40.0144 165.685 40.0144H164.817C164.775 40.0144 164.736 39.9982 164.704 39.9659L164.705 39.9684ZM166.586 37.5585C166.775 37.5585 166.922 37.51 167.029 37.4143C167.136 37.3173 167.19 37.1755 167.19 36.9865C167.19 36.8099 167.139 36.6706 167.038 36.565C166.937 36.4593 166.786 36.407 166.585 36.407H165.833V37.5585H166.585H166.586Z" fill="white"/>
<path d="M168.176 39.9756C168.149 39.9482 168.134 39.9171 168.134 39.8823C168.134 39.8562 168.136 39.8375 168.14 39.8239L169.65 35.693C169.663 35.642 169.691 35.5985 169.734 35.5637C169.776 35.5289 169.832 35.5127 169.9 35.5127H170.852C170.92 35.5127 170.976 35.5301 171.018 35.5637C171.06 35.5985 171.089 35.6408 171.101 35.693L172.606 39.8239L172.618 39.8823C172.618 39.9171 172.605 39.9482 172.576 39.9756C172.547 40.0029 172.515 40.0178 172.477 40.0178H171.685C171.582 40.0178 171.514 39.9731 171.479 39.8823L171.228 39.2257H169.511L169.267 39.8823C169.232 39.9718 169.161 40.0178 169.054 40.0178H168.263C168.228 40.0178 168.197 40.0042 168.17 39.9756H168.176ZM170.976 38.2981L170.378 36.5995L169.781 38.2981H170.976Z" fill="white"/>
<path d="M173.015 39.9684C172.982 39.936 172.966 39.8987 172.966 39.8552V35.6721C172.966 35.6249 172.982 35.5863 173.015 35.5565C173.047 35.5266 173.084 35.5117 173.128 35.5117H174.877C175.438 35.5117 175.877 35.6398 176.191 35.8947C176.507 36.1496 176.663 36.5115 176.663 36.979C176.663 37.28 176.592 37.5349 176.451 37.745C176.309 37.9552 176.114 38.1156 175.866 38.2275L176.746 39.8105C176.759 39.8366 176.766 39.8602 176.766 39.8813C176.766 39.9161 176.753 39.9472 176.724 39.9746C176.697 40.0019 176.666 40.0169 176.631 40.0169H175.776C175.652 40.0169 175.564 39.9584 175.513 39.8428L174.78 38.4265H174.124V39.8552C174.124 39.9025 174.108 39.941 174.075 39.9709C174.043 40.0007 174.003 40.0156 173.956 40.0156H173.126C173.084 40.0156 173.046 39.9995 173.013 39.9671L173.015 39.9684ZM174.863 37.5137C175.061 37.5137 175.21 37.4652 175.313 37.3695C175.416 37.2725 175.467 37.1394 175.467 36.9678C175.467 36.7962 175.416 36.6595 175.315 36.5587C175.215 36.458 175.063 36.407 174.862 36.407H174.123V37.5137H174.862H174.863Z" fill="white"/>
<path d="M177.221 39.9684C177.189 39.936 177.172 39.8987 177.172 39.8552V35.6721C177.172 35.6249 177.189 35.5863 177.221 35.5565C177.253 35.5266 177.291 35.5117 177.334 35.5117H178.144C178.191 35.5117 178.23 35.5266 178.259 35.5565C178.289 35.5863 178.304 35.6249 178.304 35.6721V37.1009L179.493 35.6336C179.544 35.5515 179.628 35.5117 179.744 35.5117H180.67C180.708 35.5117 180.74 35.5254 180.766 35.554C180.792 35.5826 180.805 35.6124 180.805 35.6473C180.805 35.6771 180.799 35.7032 180.785 35.7244L179.242 37.6679L180.901 39.8042C180.918 39.8216 180.927 39.8478 180.927 39.8813C180.927 39.9149 180.914 39.9472 180.888 39.9746C180.862 40.0019 180.83 40.0169 180.791 40.0169H179.833C179.73 40.0169 179.645 39.9746 179.576 39.8875L178.303 38.2984V39.8552C178.303 39.9025 178.288 39.941 178.258 39.9709C178.228 40.0007 178.19 40.0156 178.143 40.0156H177.333C177.291 40.0156 177.252 39.9995 177.22 39.9671L177.221 39.9684Z" fill="white"/>
<path d="M16.7832 33.6001H8.3916V41.9999H16.7832V33.6001Z" fill="#D81F26"/>
<path d="M8.39159 25.2007H0V33.6004H8.39159V25.2007Z" fill="#E08C23"/>
<path d="M16.7832 25.2007H8.3916V33.6004H16.7832V25.2007Z" fill="#D81F26"/>
<path d="M25.1748 25.2007H16.7832V33.6004H25.1748V25.2007Z" fill="#D81F26"/>
<path d="M8.39159 16.7993H0V25.1991H8.39159V16.7993Z" fill="#E6B71D"/>
<path d="M16.7832 16.7993H8.3916V25.1991H16.7832V16.7993Z" fill="#E08C23"/>
<path d="M25.1748 16.7993H16.7832V25.1991H25.1748V16.7993Z" fill="#D81F26"/>
<path d="M16.7832 8.3999H8.3916V16.7997H16.7832V8.3999Z" fill="#E6B71D"/>
<path d="M25.1748 8.3999H16.7832V16.7997H25.1748V8.3999Z" fill="#E08C23"/>
<path d="M25.1748 0H16.7832V8.39975H25.1748V0Z" fill="#E6B71D"/>
</g>
<defs>
<clipPath id="clip0_5_199">
<rect width="182" height="42" fill="white"/>
</clipPath>
</defs>
</svg>
