<svg width="236" height="55" viewBox="0 0 236 55" fill="none" xmlns="http://www.w3.org/2000/svg">
<g clip-path="url(#clip0_2_2)">
<path d="M64.992 41.2728C63.4118 42.0023 61.5915 42.3671 59.5312 42.3671C57.6529 42.3671 55.918 42.0544 54.3281 41.4291C52.7365 40.8038 51.3576 39.918 50.1898 38.7732C49.0219 37.6285 48.1053 36.2558 47.4416 34.6583C46.7779 33.0609 46.4461 31.3023 46.4461 29.3808C46.4461 27.4593 46.7844 25.6306 47.4593 24.0332C48.1343 22.4358 49.067 21.0761 50.259 19.9541C51.4495 18.8322 52.8461 17.9691 54.4489 17.3666C56.0517 16.7658 57.7802 16.4645 59.6359 16.4645C61.3531 16.4645 63.0413 16.7723 64.7021 17.3845C66.3613 17.9984 67.7079 18.8957 68.7373 20.0746L64.7536 24.1016C64.2043 23.3379 63.4826 22.7712 62.5902 22.3999C61.6978 22.0303 60.7812 21.8447 59.8421 21.8447C58.8111 21.8447 57.8672 22.0352 57.0086 22.4178C56.15 22.8005 55.4106 23.3265 54.7936 23.9974C54.175 24.6683 53.695 25.4613 53.3503 26.3764C53.0072 27.2916 52.8348 28.2914 52.8348 29.3792C52.8348 30.4669 53.0072 31.5091 53.3503 32.434C53.6934 33.3605 54.1686 34.1519 54.7759 34.813C55.3816 35.4725 56.1097 35.9887 56.957 36.3584C57.8043 36.7296 58.7306 36.9136 59.739 36.9136C60.9069 36.9136 61.9249 36.6824 62.7964 36.22C63.6663 35.7575 64.3638 35.155 64.8921 34.4141L68.9789 38.3026C67.9028 39.5532 66.5739 40.5417 64.9952 41.2712L64.992 41.2728Z" fill="#231F20"/>
<path d="M81.4067 41.7059V32.3314C81.4067 31.8445 81.3729 31.382 81.3036 30.9424C81.2344 30.5027 81.1023 30.1152 80.909 29.7797C80.7141 29.4443 80.4563 29.1772 80.1358 28.9818C79.8152 28.7848 79.4028 28.6871 78.8986 28.6871C77.9144 28.6871 77.1589 29.0404 76.6321 29.7455C76.1054 30.4522 75.8428 31.325 75.8428 32.3672V41.7076H70.2096V15.4582H75.8428V26.6044H75.9121C76.3019 25.9107 76.9189 25.2903 77.7662 24.7464C78.6135 24.2025 79.6315 23.9306 80.8236 23.9306C82.0156 23.9306 82.9709 24.139 83.7602 24.5559C84.5495 24.9728 85.1906 25.5101 85.6836 26.1712C86.1765 26.8307 86.5309 27.5896 86.7484 28.4461C86.9658 29.3026 87.0754 30.1591 87.0754 31.0157V41.7092H81.4083L81.4067 41.7059Z" fill="#231F20"/>
<path d="M101.158 41.7059V39.3106H101.088C100.882 39.7047 100.613 40.0743 100.281 40.4212C99.9494 40.768 99.5596 41.0692 99.1134 41.3233C98.6672 41.5789 98.1742 41.7857 97.6362 41.9486C97.0982 42.1098 96.5312 42.1912 95.9368 42.1912C94.7914 42.1912 93.8249 41.9828 93.034 41.5659C92.2446 41.149 91.6019 40.6117 91.1106 39.9506C90.6177 39.2911 90.2633 38.5388 90.0458 37.6936C89.8283 36.8485 89.7188 35.9871 89.7188 35.1061V24.4126H95.3858V33.7872C95.3858 34.274 95.4197 34.7365 95.4889 35.1762C95.5582 35.6158 95.6887 36.0099 95.8836 36.3567C96.0785 36.7036 96.3363 36.9755 96.6568 37.1725C96.9774 37.3696 97.401 37.4673 97.9278 37.4673C98.912 37.4673 99.6627 37.0976 100.178 36.3567C100.694 35.6158 100.951 34.7479 100.951 33.753V24.4126H106.585V41.7043H101.158V41.7059Z" fill="#231F20"/>
<path d="M116.284 28.6513V35.2739C116.284 36.0864 116.438 36.6971 116.748 37.1042C117.057 37.5113 117.611 37.7148 118.413 37.7148C118.689 37.7148 118.98 37.692 119.29 37.6448C119.599 37.5992 119.857 37.5292 120.063 37.4364L120.132 41.6034C119.742 41.7418 119.251 41.8639 118.655 41.9681C118.059 42.0723 117.464 42.1245 116.868 42.1245C115.723 42.1245 114.761 41.9795 113.983 41.6897C113.205 41.3998 112.58 40.983 112.111 40.4358C111.641 39.8903 111.304 39.2406 111.098 38.4867C110.892 37.7327 110.789 36.8909 110.789 35.9627V28.6529H108.041V24.4175H110.754V19.8694H116.284V24.4175H120.303V28.6529H116.284V28.6513Z" fill="#231F20"/>
<path d="M134.042 41.706V32.2614C134.042 31.7745 134.002 31.312 133.921 30.8724C133.84 30.4327 133.708 30.0452 133.526 29.7097C133.343 29.3743 133.085 29.1088 132.753 28.9118C132.421 28.7148 132.002 28.6171 131.5 28.6171C130.997 28.6171 130.556 28.7164 130.177 28.9118C129.799 29.1088 129.485 29.3808 129.233 29.7276C128.98 30.0745 128.792 30.4734 128.666 30.9261C128.541 31.3772 128.478 31.8461 128.478 32.333V41.7076H122.811V24.4159H128.272V26.8112H128.341C128.547 26.4416 128.816 26.0768 129.148 25.7169C129.48 25.3587 129.87 25.0526 130.316 24.7969C130.762 24.5429 131.249 24.3345 131.775 24.1716C132.302 24.0104 132.863 23.929 133.459 23.929C134.604 23.929 135.577 24.1374 136.378 24.5543C137.178 24.9711 137.826 25.5085 138.319 26.1696C138.812 26.8291 139.166 27.5879 139.383 28.4445C139.601 29.301 139.71 30.1575 139.71 31.014V41.7076H134.043L134.042 41.706Z" fill="#231F20"/>
<path d="M158.772 33.2693V33.963C158.772 34.1942 158.761 34.4141 158.738 34.6225H146.339C146.384 35.1094 146.528 35.5491 146.769 35.9415C147.009 36.3356 147.319 36.6759 147.697 36.9657C148.076 37.2556 148.498 37.4819 148.968 37.6431C149.437 37.806 149.923 37.8858 150.428 37.8858C151.32 37.8858 152.075 37.7181 152.694 37.3826C153.313 37.0472 153.815 36.614 154.205 36.0799L158.121 38.5795C157.319 39.76 156.26 40.6687 154.944 41.3054C153.627 41.9421 152.098 42.2596 150.358 42.2596C149.076 42.2596 147.861 42.056 146.718 41.6522C145.572 41.2467 144.57 40.6573 143.712 39.8822C142.853 39.1071 142.177 38.1528 141.685 37.0178C141.192 35.8845 140.948 34.5867 140.948 33.1293C140.948 31.6719 141.188 30.4376 141.669 29.2928C142.149 28.1465 142.803 27.1743 143.626 26.3764C144.45 25.5785 145.424 24.9581 146.545 24.5184C147.666 24.0788 148.881 23.8589 150.186 23.8589C151.491 23.8589 152.602 24.0739 153.656 24.5005C154.709 24.9288 155.613 25.5476 156.368 26.3585C157.124 27.1694 157.713 28.153 158.137 29.3091C158.561 30.4669 158.773 31.7859 158.773 33.2677L158.772 33.2693ZM153.585 31.0824C153.585 30.1803 153.305 29.4052 152.744 28.7555C152.182 28.1074 151.341 27.7833 150.22 27.7833C149.67 27.7833 149.166 27.8696 148.709 28.0439C148.25 28.2181 147.85 28.4558 147.507 28.7555C147.164 29.0567 146.888 29.4101 146.682 29.8139C146.476 30.2194 146.362 30.6411 146.339 31.0808H153.586L153.585 31.0824Z" fill="#231F20"/>
<path d="M170.136 44.3114C169.793 45.2135 169.41 46.0179 168.986 46.7246C168.563 47.4297 168.058 48.0322 167.475 48.5305C166.892 49.0288 166.204 49.4033 165.415 49.6589C164.626 49.913 163.691 50.0416 162.615 50.0416C162.089 50.0416 161.544 50.0074 160.984 49.9374C160.421 49.8674 159.936 49.7746 159.524 49.6589L160.143 44.8683C160.418 44.9611 160.721 45.036 161.053 45.0946C161.385 45.1516 161.687 45.1809 161.963 45.1809C162.833 45.1809 163.463 44.9774 163.852 44.5735C164.242 44.1681 164.574 43.5949 164.848 42.8556L165.397 41.4324L158.253 24.4191H164.505L168.318 35.5295H168.421L171.821 24.4191H177.798L170.138 44.3146L170.136 44.3114Z" fill="#231F20"/>
<path d="M193.974 41.7059L192.085 36.8794H182.674L180.887 41.7059H174.499L184.7 17.124H190.401L200.5 41.7059H193.974ZM187.447 23.6863L184.356 32.123H190.469L187.447 23.6863Z" fill="#231F20"/>
<path d="M213.812 41.7059V39.449H213.743C213.193 40.3283 212.409 41.0057 211.389 41.4796C210.37 41.9535 209.289 42.1912 208.143 42.1912C206.861 42.1912 205.716 41.9355 204.709 41.4275C203.701 40.9194 202.848 40.242 202.151 39.3969C201.452 38.5518 200.92 37.5748 200.553 36.4626C200.186 35.352 200.004 34.1942 200.004 32.9909C200.004 31.7875 200.192 30.6362 200.571 29.5355C200.949 28.4363 201.486 27.4691 202.185 26.637C202.882 25.8032 203.73 25.1437 204.727 24.6585C205.722 24.1732 206.838 23.929 208.076 23.929C209.313 23.929 210.4 24.1716 211.27 24.6585C212.14 25.1454 212.816 25.6778 213.296 26.2559H213.366V15.4582H218.999V41.7076H213.812V41.7059ZM213.606 33.0267C213.606 32.4714 213.507 31.9275 213.314 31.3951C213.119 30.8626 212.844 30.3887 212.489 29.9719C212.133 29.555 211.705 29.2196 211.201 28.9655C210.697 28.7115 210.125 28.5829 209.484 28.5829C208.842 28.5829 208.235 28.7099 207.731 28.9655C207.227 29.2212 206.803 29.5501 206.46 29.9556C206.117 30.3611 205.859 30.83 205.687 31.3625C205.514 31.895 205.429 32.4389 205.429 32.9941C205.429 33.5494 205.514 34.0998 205.687 34.6437C205.859 35.1876 206.117 35.6679 206.46 36.0848C206.803 36.5017 207.227 36.8371 207.731 37.0911C208.234 37.3468 208.818 37.4722 209.484 37.4722C210.149 37.4722 210.697 37.3452 211.201 37.0911C211.703 36.8371 212.133 36.5017 212.489 36.0848C212.844 35.6679 213.119 35.1941 213.314 34.6616C213.509 34.1291 213.606 33.5852 213.606 33.03V33.0267Z" fill="#231F20"/>
<path d="M232.909 29.5192C232.451 29.0795 231.913 28.7099 231.295 28.4086C230.676 28.1074 230.024 27.9576 229.337 27.9576C228.811 27.9576 228.324 28.0618 227.878 28.2702C227.432 28.4787 227.208 28.8369 227.208 29.3466C227.208 29.8563 227.454 30.1803 227.946 30.3887C228.437 30.5972 229.234 30.8284 230.333 31.0824C230.974 31.2208 231.622 31.4179 232.274 31.6719C232.926 31.9276 233.516 32.2614 234.043 32.6782C234.57 33.0951 234.993 33.6048 235.314 34.2057C235.634 34.8082 235.795 35.5246 235.795 36.3584C235.795 37.4461 235.578 38.3662 235.143 39.1185C234.708 39.8708 234.141 40.4782 233.444 40.9406C232.744 41.4047 231.96 41.7385 231.09 41.947C230.22 42.1554 229.35 42.2596 228.479 42.2596C227.082 42.2596 225.713 42.0333 224.374 41.5822C223.034 41.1311 221.918 40.4651 221.025 39.5858L224.186 36.2183C224.689 36.7736 225.307 37.2377 226.04 37.6073C226.773 37.9786 227.551 38.1626 228.376 38.1626C228.833 38.1626 229.286 38.0535 229.732 37.832C230.178 37.6122 230.402 37.2247 230.402 36.6694C230.402 36.1141 230.127 35.7445 229.577 35.4888C229.028 35.2348 228.17 34.9677 227.002 34.6909C226.406 34.5525 225.811 34.3669 225.215 34.1356C224.619 33.9044 224.088 33.5918 223.619 33.1977C223.149 32.8036 222.765 32.3184 222.469 31.7387C222.171 31.1606 222.023 30.4653 222.023 29.656C222.023 28.6138 222.24 27.7296 222.675 27.0001C223.11 26.2706 223.67 25.6746 224.358 25.2121C225.045 24.7497 225.806 24.4077 226.642 24.1879C227.479 23.9681 228.308 23.8573 229.133 23.8573C230.415 23.8573 231.668 24.0609 232.894 24.4647C234.119 24.8702 235.156 25.4776 236.003 26.2869L232.912 29.5159L232.909 29.5192Z" fill="#231F20"/>
<path d="M174.404 52.3392C174.362 52.2969 174.341 52.2481 174.341 52.1911V46.7132C174.341 46.6513 174.362 46.6008 174.404 46.5618C174.446 46.5227 174.494 46.5031 174.55 46.5031H177.094C177.795 46.5031 178.315 46.6481 178.656 46.9379C178.998 47.2278 179.169 47.6381 179.169 48.1722C179.169 48.4539 179.098 48.6901 178.956 48.8838C178.814 49.0776 178.655 49.2193 178.476 49.3088C178.703 49.4163 178.895 49.5873 179.051 49.8234C179.207 50.0595 179.285 50.3233 179.285 50.6148C179.285 51.1766 179.101 51.6146 178.734 51.9289C178.366 52.2432 177.845 52.4011 177.166 52.4011H174.549C174.494 52.4011 174.444 52.38 174.402 52.3376L174.404 52.3392ZM176.925 48.8464C177.147 48.8464 177.316 48.7894 177.434 48.6738C177.55 48.5582 177.609 48.4051 177.609 48.2146C177.609 48.024 177.551 47.8808 177.434 47.7684C177.318 47.656 177.147 47.599 176.925 47.599H175.841V48.8464H176.925ZM177 51.3068C177.228 51.3068 177.406 51.2401 177.534 51.1049C177.661 50.9698 177.725 50.8069 177.725 50.6164C177.725 50.4145 177.661 50.2468 177.534 50.1149C177.406 49.983 177.228 49.9162 177 49.9162H175.842V51.3068H177Z" fill="#231F20"/>
<path d="M181.377 52.3393C181.335 52.2969 181.314 52.2481 181.314 52.1911V50.3787L179.38 46.7718C179.364 46.7214 179.354 46.6904 179.354 46.679C179.354 46.6334 179.372 46.5927 179.409 46.5569C179.444 46.5211 179.488 46.5015 179.538 46.5015H180.58C180.691 46.5015 180.788 46.5601 180.871 46.679L182.063 48.8529L183.263 46.679C183.33 46.5618 183.428 46.5015 183.555 46.5015H184.597C184.647 46.5015 184.689 46.5194 184.723 46.5569C184.757 46.5943 184.773 46.6334 184.773 46.679C184.773 46.7067 184.768 46.7376 184.757 46.7718L182.822 50.3787V52.1911C182.822 52.2529 182.801 52.3034 182.759 52.3425C182.717 52.3816 182.666 52.4011 182.605 52.4011H181.52C181.466 52.4011 181.416 52.38 181.374 52.3376L181.377 52.3393Z" fill="#231F20"/>
<path d="M186.996 52.3392C186.954 52.2969 186.933 52.2481 186.933 52.1911V46.7132C186.933 46.6513 186.954 46.6008 186.996 46.5618C187.038 46.5227 187.086 46.5031 187.142 46.5031H189.311C190.127 46.5031 190.76 46.7002 191.211 47.0926C191.661 47.4867 191.898 48.0566 191.92 48.8024C191.925 48.9653 191.928 49.1818 191.928 49.4521C191.928 49.7224 191.925 49.9358 191.92 50.0921C191.893 50.8737 191.662 51.4534 191.232 51.8328C190.802 52.2122 190.176 52.4011 189.353 52.4011H187.144C187.089 52.4011 187.039 52.38 186.997 52.3376L186.996 52.3392ZM189.311 51.1896C189.678 51.1896 189.947 51.1017 190.119 50.9242C190.292 50.7467 190.383 50.465 190.395 50.0774C190.406 49.9146 190.411 49.7045 190.411 49.4456C190.411 49.1867 190.406 48.9799 190.395 48.822C190.383 48.4458 190.285 48.1673 190.098 47.9882C189.911 47.8091 189.636 47.7179 189.269 47.7179H188.436V51.1896H189.311Z" fill="#231F20"/>
<path d="M192.674 52.3392C192.632 52.2969 192.611 52.2481 192.611 52.1911V46.7132C192.611 46.6513 192.632 46.6008 192.674 46.5618C192.716 46.5227 192.764 46.5031 192.821 46.5031H193.939C194 46.5031 194.051 46.5227 194.093 46.5618C194.135 46.6008 194.156 46.6513 194.156 46.7132V52.1911C194.156 52.2529 194.135 52.3034 194.093 52.3425C194.051 52.3816 194 52.4011 193.939 52.4011H192.821C192.766 52.4011 192.716 52.38 192.674 52.3376V52.3392Z" fill="#231F20"/>
<path d="M195.577 51.8931C195.127 51.4974 194.887 50.934 194.86 50.2028C194.854 50.04 194.852 49.7811 194.852 49.4277C194.852 49.0744 194.855 48.8154 194.86 48.6526C194.887 47.9394 195.131 47.389 195.59 47.0014C196.049 46.6139 196.669 46.4201 197.454 46.4201C197.982 46.4201 198.441 46.508 198.834 46.6806C199.226 46.8549 199.525 47.0763 199.735 47.3467C199.942 47.617 200.052 47.8938 200.063 48.1804C200.063 48.2309 200.045 48.2732 200.008 48.3074C199.973 48.3416 199.929 48.3579 199.88 48.3579H198.662C198.607 48.3579 198.562 48.3497 198.528 48.3318C198.494 48.3139 198.467 48.2846 198.444 48.239C198.372 48.0762 198.257 47.9345 198.103 47.814C197.947 47.6935 197.731 47.6332 197.452 47.6332C196.79 47.6332 196.444 47.9866 196.41 48.6949C196.403 48.8529 196.402 49.0972 196.402 49.4277C196.402 49.7583 196.405 49.9976 196.41 50.1605C196.444 50.9014 196.798 51.2727 197.476 51.2727C197.805 51.2727 198.067 51.1864 198.264 51.0154C198.46 50.8444 198.56 50.5806 198.56 50.2272V50.0677H197.777C197.716 50.0677 197.666 50.0465 197.628 50.0042C197.589 49.9618 197.57 49.9097 197.57 49.8478V49.2242C197.57 49.1623 197.589 49.1102 197.628 49.0678C197.666 49.0255 197.716 49.0043 197.777 49.0043H199.878C199.939 49.0043 199.989 49.0255 200.028 49.0678C200.066 49.1102 200.086 49.1623 200.086 49.2242V50.1849C200.086 50.662 199.978 51.074 199.76 51.4192C199.544 51.7644 199.237 52.0282 198.839 52.2122C198.441 52.3946 197.979 52.4858 197.45 52.4858C196.65 52.4858 196.025 52.2871 195.575 51.8914L195.577 51.8931Z" fill="#231F20"/>
<path d="M200.825 52.3392C200.783 52.2969 200.762 52.2481 200.762 52.1911V46.7132C200.762 46.6513 200.783 46.6008 200.825 46.5618C200.867 46.5227 200.915 46.5031 200.972 46.5031H202.09C202.151 46.5031 202.202 46.5227 202.244 46.5618C202.286 46.6008 202.307 46.6513 202.307 46.7132V52.1911C202.307 52.2529 202.286 52.3034 202.244 52.3425C202.202 52.3816 202.151 52.4011 202.09 52.4011H200.972C200.917 52.4011 200.867 52.38 200.825 52.3376V52.3392Z" fill="#231F20"/>
<path d="M204.553 52.3393C204.511 52.2969 204.49 52.2481 204.49 52.1911V47.8254H203.006C202.95 47.8254 202.902 47.8042 202.86 47.7619C202.818 47.7195 202.797 47.6707 202.797 47.6137V46.7116C202.797 46.6497 202.818 46.5992 202.86 46.5601C202.902 46.5211 202.95 46.5015 203.006 46.5015H207.491C207.552 46.5015 207.602 46.5211 207.641 46.5601C207.679 46.5992 207.699 46.6497 207.699 46.7116V47.6137C207.699 47.6756 207.679 47.7261 207.641 47.7651C207.602 47.8042 207.552 47.8238 207.491 47.8238H206.007V52.1894C206.007 52.2464 205.988 52.2953 205.949 52.3376C205.911 52.38 205.861 52.4011 205.799 52.4011H204.699C204.643 52.4011 204.595 52.38 204.553 52.3376V52.3393Z" fill="#231F20"/>
<path d="M209.089 52.2513C208.71 52.0934 208.427 51.8882 208.235 51.6325C208.043 51.3769 207.942 51.0968 207.931 50.7939C207.931 50.7483 207.948 50.7076 207.985 50.6718C208.022 50.636 208.064 50.6164 208.114 50.6164H209.165C209.231 50.6164 209.285 50.6294 209.327 50.6539C209.369 50.6783 209.413 50.7174 209.456 50.7679C209.529 50.9144 209.645 51.0349 209.806 51.131C209.967 51.2271 210.181 51.2743 210.447 51.2743C210.764 51.2743 211.006 51.2238 211.172 51.1228C211.338 51.0219 211.421 50.8835 211.421 50.7092C211.421 50.5855 211.378 50.4845 211.293 50.4064C211.206 50.3282 211.072 50.2582 210.888 50.1963C210.705 50.1344 210.432 50.0644 210.071 49.9862C209.405 49.8462 208.905 49.6394 208.575 49.3675C208.245 49.0955 208.079 48.7063 208.079 48.1999C208.079 47.858 208.174 47.5502 208.362 47.2815C208.551 47.0112 208.821 46.8011 209.171 46.6497C209.521 46.4983 209.93 46.4217 210.397 46.4217C210.864 46.4217 211.301 46.5064 211.655 46.6741C212.009 46.8418 212.282 47.0552 212.468 47.3108C212.655 47.5665 212.754 47.8172 212.765 48.0648C212.765 48.1152 212.749 48.1576 212.715 48.1918C212.681 48.226 212.639 48.2422 212.589 48.2422H211.489C211.423 48.2422 211.368 48.2308 211.326 48.2081C211.284 48.1853 211.247 48.1494 211.214 48.099C211.18 47.9703 211.09 47.8596 210.943 47.77C210.796 47.6805 210.614 47.6349 210.397 47.6349C210.147 47.6349 209.956 47.6805 209.822 47.77C209.688 47.8596 209.622 47.9915 209.622 48.1657C209.622 48.283 209.659 48.3823 209.735 48.4605C209.811 48.5386 209.931 48.6103 210.102 48.6754C210.271 48.7405 210.514 48.8057 210.832 48.8741C211.349 48.9701 211.761 49.089 212.071 49.2323C212.378 49.3756 212.605 49.5612 212.75 49.7892C212.895 50.0172 212.966 50.3021 212.966 50.6441C212.966 51.0203 212.86 51.3476 212.646 51.626C212.431 51.9045 212.135 52.1178 211.753 52.266C211.373 52.4141 210.938 52.489 210.448 52.489C209.92 52.489 209.467 52.4109 209.089 52.2529V52.2513Z" fill="#231F20"/>
<path d="M213.574 52.3392C213.532 52.2969 213.511 52.2481 213.511 52.1911V46.7132C213.511 46.6513 213.532 46.6008 213.574 46.5618C213.615 46.5227 213.664 46.5031 213.72 46.5031H216.054C216.766 46.5031 217.325 46.6692 217.734 46.9998C218.144 47.332 218.347 47.814 218.347 48.4491C218.347 49.0841 218.144 49.5515 217.738 49.869C217.332 50.1865 216.771 50.3445 216.054 50.3445H215.062V52.1894C215.062 52.2513 215.041 52.3018 214.999 52.3409C214.957 52.38 214.906 52.3995 214.844 52.3995H213.718C213.664 52.3995 213.614 52.3783 213.572 52.336L213.574 52.3392ZM216.012 49.1835C216.257 49.1835 216.449 49.1199 216.587 48.9946C216.726 48.8675 216.795 48.6819 216.795 48.4344C216.795 48.2032 216.729 48.0208 216.599 47.8824C216.468 47.744 216.272 47.6756 216.011 47.6756H215.036V49.1835H216.011H216.012Z" fill="#231F20"/>
<path d="M218.074 52.349C218.039 52.3132 218.02 52.2725 218.02 52.2269C218.02 52.1927 218.023 52.1683 218.028 52.1503L219.986 46.7409C220.003 46.6741 220.04 46.6171 220.094 46.5715C220.149 46.5259 220.222 46.5048 220.31 46.5048H221.544C221.633 46.5048 221.705 46.5276 221.76 46.5715C221.815 46.6171 221.852 46.6725 221.868 46.7409L223.819 52.1503L223.835 52.2269C223.835 52.2725 223.817 52.3132 223.78 52.349C223.743 52.3848 223.701 52.4044 223.651 52.4044H222.625C222.491 52.4044 222.403 52.3457 222.358 52.2269L222.032 51.3671H219.806L219.489 52.2269C219.444 52.3441 219.352 52.4044 219.213 52.4044H218.187C218.142 52.4044 218.102 52.3865 218.066 52.349H218.074ZM221.705 50.1523L220.93 47.928L220.156 50.1523H221.705Z" fill="#231F20"/>
<path d="M224.349 52.3392C224.307 52.2969 224.286 52.2481 224.286 52.1911V46.7132C224.286 46.6513 224.307 46.6008 224.349 46.5618C224.39 46.5227 224.439 46.5031 224.495 46.5031H226.763C227.491 46.5031 228.06 46.6709 228.468 47.0047C228.877 47.3385 229.08 47.8124 229.08 48.4246C229.08 48.8187 228.988 49.1525 228.804 49.4277C228.621 49.7029 228.368 49.913 228.046 50.0595L229.188 52.1324C229.204 52.1666 229.213 52.1976 229.213 52.2253C229.213 52.2709 229.196 52.3116 229.159 52.3474C229.123 52.3832 229.083 52.4027 229.038 52.4027H227.93C227.768 52.4027 227.654 52.3262 227.588 52.1748L226.638 50.3201H225.787V52.1911C225.787 52.2529 225.766 52.3034 225.724 52.3425C225.682 52.3816 225.631 52.4011 225.57 52.4011H224.494C224.439 52.4011 224.389 52.38 224.347 52.3376L224.349 52.3392ZM226.746 49.1248C227.002 49.1248 227.195 49.0613 227.329 48.9359C227.462 48.8089 227.528 48.6347 227.528 48.41C227.528 48.1853 227.462 48.0061 227.332 47.8742C227.201 47.7423 227.005 47.6756 226.744 47.6756H225.785V49.1248H226.744H226.746Z" fill="#231F20"/>
<path d="M229.803 52.3392C229.761 52.2969 229.74 52.2481 229.74 52.1911V46.7132C229.74 46.6513 229.761 46.6008 229.803 46.5618C229.845 46.5227 229.893 46.5031 229.95 46.5031H231C231.061 46.5031 231.111 46.5227 231.15 46.5618C231.188 46.6008 231.208 46.6513 231.208 46.7132V48.5842L232.749 46.6627C232.815 46.5553 232.925 46.5031 233.075 46.5031H234.275C234.325 46.5031 234.367 46.5211 234.4 46.5585C234.434 46.596 234.45 46.635 234.45 46.6806C234.45 46.7197 234.442 46.7539 234.425 46.7816L232.424 49.3268L234.574 52.1243C234.597 52.1471 234.608 52.1813 234.608 52.2253C234.608 52.2692 234.592 52.3116 234.558 52.3474C234.524 52.3832 234.483 52.4027 234.433 52.4027H233.191C233.057 52.4027 232.946 52.3474 232.857 52.2334L231.206 50.1523V52.1911C231.206 52.2529 231.187 52.3034 231.148 52.3425C231.109 52.3816 231.059 52.4011 230.998 52.4011H229.948C229.893 52.4011 229.843 52.38 229.801 52.3376L229.803 52.3392Z" fill="#231F20"/>
<path d="M64.992 41.2728C63.4118 42.0023 61.5915 42.3671 59.5312 42.3671C57.6529 42.3671 55.918 42.0544 54.3281 41.4291C52.7365 40.8038 51.3576 39.918 50.1898 38.7732C49.0219 37.6285 48.1053 36.2558 47.4416 34.6583C46.7779 33.0609 46.4461 31.3023 46.4461 29.3808C46.4461 27.4593 46.7844 25.6306 47.4593 24.0332C48.1343 22.4358 49.067 21.0761 50.259 19.9541C51.4495 18.8322 52.8461 17.9691 54.4489 17.3666C56.0517 16.7658 57.7802 16.4645 59.6359 16.4645C61.3531 16.4645 63.0413 16.7723 64.7021 17.3845C66.3613 17.9984 67.7079 18.8957 68.7373 20.0746L64.7536 24.1016C64.2043 23.3379 63.4826 22.7712 62.5902 22.3999C61.6978 22.0303 60.7812 21.8447 59.8421 21.8447C58.8111 21.8447 57.8672 22.0352 57.0086 22.4178C56.15 22.8005 55.4106 23.3265 54.7936 23.9974C54.175 24.6683 53.695 25.4613 53.3503 26.3764C53.0072 27.2916 52.8348 28.2914 52.8348 29.3792C52.8348 30.4669 53.0072 31.5091 53.3503 32.434C53.6934 33.3605 54.1686 34.1519 54.7759 34.813C55.3816 35.4725 56.1097 35.9887 56.957 36.3584C57.8043 36.7296 58.7306 36.9136 59.739 36.9136C60.9069 36.9136 61.9249 36.6824 62.7964 36.22C63.6663 35.7575 64.3638 35.155 64.8921 34.4141L68.9789 38.3026C67.9028 39.5532 66.5739 40.5417 64.9952 41.2712L64.992 41.2728Z" fill="#231F20"/>
<path d="M81.4067 41.7059V32.3314C81.4067 31.8445 81.3729 31.382 81.3036 30.9424C81.2344 30.5027 81.1023 30.1152 80.909 29.7797C80.7141 29.4443 80.4563 29.1772 80.1358 28.9818C79.8152 28.7848 79.4028 28.6871 78.8986 28.6871C77.9144 28.6871 77.1589 29.0404 76.6321 29.7455C76.1054 30.4522 75.8428 31.325 75.8428 32.3672V41.7076H70.2096V15.4582H75.8428V26.6044H75.9121C76.3019 25.9107 76.9189 25.2903 77.7662 24.7464C78.6135 24.2025 79.6315 23.9306 80.8236 23.9306C82.0156 23.9306 82.9709 24.139 83.7602 24.5559C84.5495 24.9728 85.1906 25.5101 85.6836 26.1712C86.1765 26.8307 86.5309 27.5896 86.7484 28.4461C86.9658 29.3026 87.0754 30.1591 87.0754 31.0157V41.7092H81.4083L81.4067 41.7059Z" fill="#231F20"/>
<path d="M101.158 41.7059V39.3106H101.088C100.882 39.7047 100.613 40.0743 100.281 40.4212C99.9494 40.768 99.5596 41.0692 99.1134 41.3233C98.6672 41.5789 98.1742 41.7857 97.6362 41.9486C97.0982 42.1098 96.5312 42.1912 95.9368 42.1912C94.7914 42.1912 93.8249 41.9828 93.034 41.5659C92.2446 41.149 91.6019 40.6117 91.1106 39.9506C90.6177 39.2911 90.2633 38.5388 90.0458 37.6936C89.8283 36.8485 89.7188 35.9871 89.7188 35.1061V24.4126H95.3858V33.7872C95.3858 34.274 95.4197 34.7365 95.4889 35.1762C95.5582 35.6158 95.6887 36.0099 95.8836 36.3567C96.0785 36.7036 96.3363 36.9755 96.6568 37.1725C96.9774 37.3696 97.401 37.4673 97.9278 37.4673C98.912 37.4673 99.6627 37.0976 100.178 36.3567C100.694 35.6158 100.951 34.7479 100.951 33.753V24.4126H106.585V41.7043H101.158V41.7059Z" fill="#231F20"/>
<path d="M116.284 28.6513V35.2739C116.284 36.0864 116.438 36.6971 116.748 37.1042C117.057 37.5113 117.611 37.7148 118.413 37.7148C118.689 37.7148 118.98 37.692 119.29 37.6448C119.599 37.5992 119.857 37.5292 120.063 37.4364L120.132 41.6034C119.742 41.7418 119.251 41.8639 118.655 41.9681C118.059 42.0723 117.464 42.1245 116.868 42.1245C115.723 42.1245 114.761 41.9795 113.983 41.6897C113.205 41.3998 112.58 40.983 112.111 40.4358C111.641 39.8903 111.304 39.2406 111.098 38.4867C110.892 37.7327 110.789 36.8909 110.789 35.9627V28.6529H108.041V24.4175H110.754V19.8694H116.284V24.4175H120.303V28.6529H116.284V28.6513Z" fill="#231F20"/>
<path d="M134.042 41.706V32.2614C134.042 31.7745 134.002 31.312 133.921 30.8724C133.84 30.4327 133.708 30.0452 133.526 29.7097C133.343 29.3743 133.085 29.1088 132.753 28.9118C132.421 28.7148 132.002 28.6171 131.5 28.6171C130.997 28.6171 130.556 28.7164 130.177 28.9118C129.799 29.1088 129.485 29.3808 129.233 29.7276C128.98 30.0745 128.792 30.4734 128.666 30.9261C128.541 31.3772 128.478 31.8461 128.478 32.333V41.7076H122.811V24.4159H128.272V26.8112H128.341C128.547 26.4416 128.816 26.0768 129.148 25.7169C129.48 25.3587 129.87 25.0526 130.316 24.7969C130.762 24.5429 131.249 24.3345 131.775 24.1716C132.302 24.0104 132.863 23.929 133.459 23.929C134.604 23.929 135.577 24.1374 136.378 24.5543C137.178 24.9711 137.826 25.5085 138.319 26.1696C138.812 26.8291 139.166 27.5879 139.383 28.4445C139.601 29.301 139.71 30.1575 139.71 31.014V41.7076H134.043L134.042 41.706Z" fill="#231F20"/>
<path d="M158.772 33.2693V33.963C158.772 34.1942 158.761 34.4141 158.738 34.6225H146.339C146.384 35.1094 146.528 35.5491 146.769 35.9415C147.009 36.3356 147.319 36.6759 147.697 36.9657C148.076 37.2556 148.498 37.4819 148.968 37.6431C149.437 37.806 149.923 37.8858 150.428 37.8858C151.32 37.8858 152.075 37.7181 152.694 37.3826C153.313 37.0472 153.815 36.614 154.205 36.0799L158.121 38.5795C157.319 39.76 156.26 40.6687 154.944 41.3054C153.627 41.9421 152.098 42.2596 150.358 42.2596C149.076 42.2596 147.861 42.056 146.718 41.6522C145.572 41.2467 144.57 40.6573 143.712 39.8822C142.853 39.1071 142.177 38.1528 141.685 37.0178C141.192 35.8845 140.948 34.5867 140.948 33.1293C140.948 31.6719 141.188 30.4376 141.669 29.2928C142.149 28.1465 142.803 27.1743 143.626 26.3764C144.45 25.5785 145.424 24.9581 146.545 24.5184C147.666 24.0788 148.881 23.8589 150.186 23.8589C151.491 23.8589 152.602 24.0739 153.656 24.5005C154.709 24.9288 155.613 25.5476 156.368 26.3585C157.124 27.1694 157.713 28.153 158.137 29.3091C158.561 30.4669 158.773 31.7859 158.773 33.2677L158.772 33.2693ZM153.585 31.0824C153.585 30.1803 153.305 29.4052 152.744 28.7555C152.182 28.1074 151.341 27.7833 150.22 27.7833C149.67 27.7833 149.166 27.8696 148.709 28.0439C148.25 28.2181 147.85 28.4558 147.507 28.7555C147.164 29.0567 146.888 29.4101 146.682 29.8139C146.476 30.2194 146.362 30.6411 146.339 31.0808H153.586L153.585 31.0824Z" fill="#231F20"/>
<path d="M170.136 44.3114C169.793 45.2135 169.41 46.0179 168.986 46.7246C168.563 47.4297 168.058 48.0322 167.475 48.5305C166.892 49.0288 166.204 49.4033 165.415 49.6589C164.626 49.913 163.691 50.0416 162.615 50.0416C162.089 50.0416 161.544 50.0074 160.984 49.9374C160.421 49.8674 159.936 49.7746 159.524 49.6589L160.143 44.8683C160.418 44.9611 160.721 45.036 161.053 45.0946C161.385 45.1516 161.687 45.1809 161.963 45.1809C162.833 45.1809 163.463 44.9774 163.852 44.5735C164.242 44.1681 164.574 43.5949 164.848 42.8556L165.397 41.4324L158.253 24.4191H164.505L168.318 35.5295H168.421L171.821 24.4191H177.798L170.138 44.3146L170.136 44.3114Z" fill="#231F20"/>
<path d="M193.974 41.7059L192.085 36.8794H182.674L180.887 41.7059H174.499L184.7 17.124H190.401L200.5 41.7059H193.974ZM187.447 23.6863L184.356 32.123H190.469L187.447 23.6863Z" fill="#231F20"/>
<path d="M213.812 41.7059V39.449H213.743C213.193 40.3283 212.409 41.0057 211.389 41.4796C210.37 41.9535 209.289 42.1912 208.143 42.1912C206.861 42.1912 205.716 41.9355 204.709 41.4275C203.701 40.9194 202.848 40.242 202.151 39.3969C201.452 38.5518 200.92 37.5748 200.553 36.4626C200.186 35.352 200.004 34.1942 200.004 32.9909C200.004 31.7875 200.192 30.6362 200.571 29.5355C200.949 28.4363 201.486 27.4691 202.185 26.637C202.882 25.8032 203.73 25.1437 204.727 24.6585C205.722 24.1732 206.838 23.929 208.076 23.929C209.313 23.929 210.4 24.1716 211.27 24.6585C212.14 25.1454 212.816 25.6778 213.296 26.2559H213.366V15.4582H218.999V41.7076H213.812V41.7059ZM213.606 33.0267C213.606 32.4714 213.507 31.9275 213.314 31.3951C213.119 30.8626 212.844 30.3887 212.489 29.9719C212.133 29.555 211.705 29.2196 211.201 28.9655C210.697 28.7115 210.125 28.5829 209.484 28.5829C208.842 28.5829 208.235 28.7099 207.731 28.9655C207.227 29.2212 206.803 29.5501 206.46 29.9556C206.117 30.3611 205.859 30.83 205.687 31.3625C205.514 31.895 205.429 32.4389 205.429 32.9941C205.429 33.5494 205.514 34.0998 205.687 34.6437C205.859 35.1876 206.117 35.6679 206.46 36.0848C206.803 36.5017 207.227 36.8371 207.731 37.0911C208.234 37.3468 208.818 37.4722 209.484 37.4722C210.149 37.4722 210.697 37.3452 211.201 37.0911C211.703 36.8371 212.133 36.5017 212.489 36.0848C212.844 35.6679 213.119 35.1941 213.314 34.6616C213.509 34.1291 213.606 33.5852 213.606 33.03V33.0267Z" fill="#231F20"/>
<path d="M232.909 29.5192C232.451 29.0795 231.913 28.7099 231.295 28.4086C230.676 28.1074 230.024 27.9576 229.337 27.9576C228.811 27.9576 228.324 28.0618 227.878 28.2702C227.432 28.4787 227.208 28.8369 227.208 29.3466C227.208 29.8563 227.454 30.1803 227.946 30.3887C228.437 30.5972 229.234 30.8284 230.333 31.0824C230.974 31.2208 231.622 31.4179 232.274 31.6719C232.926 31.9276 233.516 32.2614 234.043 32.6782C234.57 33.0951 234.993 33.6048 235.314 34.2057C235.634 34.8082 235.795 35.5246 235.795 36.3584C235.795 37.4461 235.578 38.3662 235.143 39.1185C234.708 39.8708 234.141 40.4782 233.444 40.9406C232.744 41.4047 231.96 41.7385 231.09 41.947C230.22 42.1554 229.35 42.2596 228.479 42.2596C227.082 42.2596 225.713 42.0333 224.374 41.5822C223.034 41.1311 221.918 40.4651 221.025 39.5858L224.186 36.2183C224.689 36.7736 225.307 37.2377 226.04 37.6073C226.773 37.9786 227.551 38.1626 228.376 38.1626C228.833 38.1626 229.286 38.0535 229.732 37.832C230.178 37.6122 230.402 37.2247 230.402 36.6694C230.402 36.1141 230.127 35.7445 229.577 35.4888C229.028 35.2348 228.17 34.9677 227.002 34.6909C226.406 34.5525 225.811 34.3669 225.215 34.1356C224.619 33.9044 224.088 33.5918 223.619 33.1977C223.149 32.8036 222.765 32.3184 222.469 31.7387C222.171 31.1606 222.023 30.4653 222.023 29.656C222.023 28.6138 222.24 27.7296 222.675 27.0001C223.11 26.2706 223.67 25.6746 224.358 25.2121C225.045 24.7497 225.806 24.4077 226.642 24.1879C227.479 23.9681 228.308 23.8573 229.133 23.8573C230.415 23.8573 231.668 24.0609 232.894 24.4647C234.119 24.8702 235.156 25.4776 236.003 26.2869L232.912 29.5159L232.909 29.5192Z" fill="#231F20"/>
<path d="M174.404 52.3392C174.362 52.2969 174.341 52.2481 174.341 52.1911V46.7132C174.341 46.6513 174.362 46.6008 174.404 46.5618C174.446 46.5227 174.494 46.5031 174.55 46.5031H177.094C177.795 46.5031 178.315 46.6481 178.656 46.9379C178.998 47.2278 179.169 47.6381 179.169 48.1722C179.169 48.4539 179.098 48.6901 178.956 48.8838C178.814 49.0776 178.655 49.2193 178.476 49.3088C178.703 49.4163 178.895 49.5873 179.051 49.8234C179.207 50.0595 179.285 50.3233 179.285 50.6148C179.285 51.1766 179.101 51.6146 178.734 51.9289C178.366 52.2432 177.845 52.4011 177.166 52.4011H174.549C174.494 52.4011 174.444 52.38 174.402 52.3376L174.404 52.3392ZM176.925 48.8464C177.147 48.8464 177.316 48.7894 177.434 48.6738C177.55 48.5582 177.609 48.4051 177.609 48.2146C177.609 48.024 177.551 47.8808 177.434 47.7684C177.318 47.656 177.147 47.599 176.925 47.599H175.841V48.8464H176.925ZM177 51.3068C177.228 51.3068 177.406 51.2401 177.534 51.1049C177.661 50.9698 177.725 50.8069 177.725 50.6164C177.725 50.4145 177.661 50.2468 177.534 50.1149C177.406 49.983 177.228 49.9162 177 49.9162H175.842V51.3068H177Z" fill="#4C4C4D"/>
<path d="M181.377 52.3393C181.335 52.2969 181.314 52.2481 181.314 52.1911V50.3787L179.38 46.7718C179.364 46.7214 179.354 46.6904 179.354 46.679C179.354 46.6334 179.372 46.5927 179.409 46.5569C179.444 46.5211 179.488 46.5015 179.538 46.5015H180.58C180.691 46.5015 180.788 46.5601 180.871 46.679L182.063 48.8529L183.263 46.679C183.33 46.5618 183.428 46.5015 183.555 46.5015H184.597C184.647 46.5015 184.689 46.5194 184.723 46.5569C184.757 46.5943 184.773 46.6334 184.773 46.679C184.773 46.7067 184.768 46.7376 184.757 46.7718L182.822 50.3787V52.1911C182.822 52.2529 182.801 52.3034 182.759 52.3425C182.717 52.3816 182.666 52.4011 182.605 52.4011H181.52C181.466 52.4011 181.416 52.38 181.374 52.3376L181.377 52.3393Z" fill="#4C4C4D"/>
<path d="M186.996 52.3392C186.954 52.2969 186.933 52.2481 186.933 52.1911V46.7132C186.933 46.6513 186.954 46.6008 186.996 46.5618C187.038 46.5227 187.086 46.5031 187.142 46.5031H189.311C190.127 46.5031 190.76 46.7002 191.211 47.0926C191.661 47.4867 191.898 48.0566 191.92 48.8024C191.925 48.9653 191.928 49.1818 191.928 49.4521C191.928 49.7224 191.925 49.9358 191.92 50.0921C191.893 50.8737 191.662 51.4534 191.232 51.8328C190.802 52.2122 190.176 52.4011 189.353 52.4011H187.144C187.089 52.4011 187.039 52.38 186.997 52.3376L186.996 52.3392ZM189.311 51.1896C189.678 51.1896 189.947 51.1017 190.119 50.9242C190.292 50.7467 190.383 50.465 190.395 50.0774C190.406 49.9146 190.411 49.7045 190.411 49.4456C190.411 49.1867 190.406 48.9799 190.395 48.822C190.383 48.4458 190.285 48.1673 190.098 47.9882C189.911 47.8091 189.636 47.7179 189.269 47.7179H188.436V51.1896H189.311Z" fill="#4C4C4D"/>
<path d="M192.674 52.3392C192.632 52.2969 192.611 52.2481 192.611 52.1911V46.7132C192.611 46.6513 192.632 46.6008 192.674 46.5618C192.716 46.5227 192.764 46.5031 192.821 46.5031H193.939C194 46.5031 194.051 46.5227 194.093 46.5618C194.135 46.6008 194.156 46.6513 194.156 46.7132V52.1911C194.156 52.2529 194.135 52.3034 194.093 52.3425C194.051 52.3816 194 52.4011 193.939 52.4011H192.821C192.766 52.4011 192.716 52.38 192.674 52.3376V52.3392Z" fill="#4C4C4D"/>
<path d="M195.577 51.8931C195.127 51.4974 194.887 50.934 194.86 50.2028C194.854 50.04 194.852 49.7811 194.852 49.4277C194.852 49.0744 194.855 48.8154 194.86 48.6526C194.887 47.9394 195.131 47.389 195.59 47.0014C196.049 46.6139 196.669 46.4201 197.454 46.4201C197.982 46.4201 198.441 46.508 198.834 46.6806C199.226 46.8549 199.525 47.0763 199.735 47.3467C199.942 47.617 200.052 47.8938 200.063 48.1804C200.063 48.2309 200.045 48.2732 200.008 48.3074C199.973 48.3416 199.929 48.3579 199.88 48.3579H198.662C198.607 48.3579 198.562 48.3497 198.528 48.3318C198.494 48.3139 198.467 48.2846 198.444 48.239C198.372 48.0762 198.257 47.9345 198.103 47.814C197.947 47.6935 197.731 47.6332 197.452 47.6332C196.79 47.6332 196.444 47.9866 196.41 48.6949C196.403 48.8529 196.402 49.0972 196.402 49.4277C196.402 49.7583 196.405 49.9976 196.41 50.1605C196.444 50.9014 196.798 51.2727 197.476 51.2727C197.805 51.2727 198.067 51.1864 198.264 51.0154C198.46 50.8444 198.56 50.5806 198.56 50.2272V50.0677H197.777C197.716 50.0677 197.666 50.0465 197.628 50.0042C197.589 49.9618 197.57 49.9097 197.57 49.8478V49.2242C197.57 49.1623 197.589 49.1102 197.628 49.0678C197.666 49.0255 197.716 49.0043 197.777 49.0043H199.878C199.939 49.0043 199.989 49.0255 200.028 49.0678C200.066 49.1102 200.086 49.1623 200.086 49.2242V50.1849C200.086 50.662 199.978 51.074 199.76 51.4192C199.544 51.7644 199.237 52.0282 198.839 52.2122C198.441 52.3946 197.979 52.4858 197.45 52.4858C196.65 52.4858 196.025 52.2871 195.575 51.8914L195.577 51.8931Z" fill="#4C4C4D"/>
<path d="M200.825 52.3392C200.783 52.2969 200.762 52.2481 200.762 52.1911V46.7132C200.762 46.6513 200.783 46.6008 200.825 46.5618C200.867 46.5227 200.915 46.5031 200.972 46.5031H202.09C202.151 46.5031 202.202 46.5227 202.244 46.5618C202.286 46.6008 202.307 46.6513 202.307 46.7132V52.1911C202.307 52.2529 202.286 52.3034 202.244 52.3425C202.202 52.3816 202.151 52.4011 202.09 52.4011H200.972C200.917 52.4011 200.867 52.38 200.825 52.3376V52.3392Z" fill="#4C4C4D"/>
<path d="M204.553 52.3393C204.511 52.2969 204.49 52.2481 204.49 52.1911V47.8254H203.006C202.95 47.8254 202.902 47.8042 202.86 47.7619C202.818 47.7195 202.797 47.6707 202.797 47.6137V46.7116C202.797 46.6497 202.818 46.5992 202.86 46.5601C202.902 46.5211 202.95 46.5015 203.006 46.5015H207.491C207.552 46.5015 207.602 46.5211 207.641 46.5601C207.679 46.5992 207.699 46.6497 207.699 46.7116V47.6137C207.699 47.6756 207.679 47.7261 207.641 47.7651C207.602 47.8042 207.552 47.8238 207.491 47.8238H206.007V52.1894C206.007 52.2464 205.988 52.2953 205.949 52.3376C205.911 52.38 205.861 52.4011 205.799 52.4011H204.699C204.643 52.4011 204.595 52.38 204.553 52.3376V52.3393Z" fill="#4C4C4D"/>
<path d="M209.089 52.2513C208.71 52.0934 208.427 51.8882 208.235 51.6325C208.043 51.3769 207.942 51.0968 207.931 50.7939C207.931 50.7483 207.948 50.7076 207.985 50.6718C208.022 50.636 208.064 50.6164 208.114 50.6164H209.165C209.231 50.6164 209.285 50.6294 209.327 50.6539C209.369 50.6783 209.413 50.7174 209.456 50.7679C209.529 50.9144 209.645 51.0349 209.806 51.131C209.967 51.2271 210.181 51.2743 210.447 51.2743C210.764 51.2743 211.006 51.2238 211.172 51.1228C211.338 51.0219 211.421 50.8835 211.421 50.7092C211.421 50.5855 211.378 50.4845 211.293 50.4064C211.206 50.3282 211.072 50.2582 210.888 50.1963C210.705 50.1344 210.432 50.0644 210.071 49.9862C209.405 49.8462 208.905 49.6394 208.575 49.3675C208.245 49.0955 208.079 48.7063 208.079 48.1999C208.079 47.858 208.174 47.5502 208.362 47.2815C208.551 47.0112 208.821 46.8011 209.171 46.6497C209.521 46.4983 209.93 46.4217 210.397 46.4217C210.864 46.4217 211.301 46.5064 211.655 46.6741C212.009 46.8418 212.282 47.0552 212.468 47.3108C212.655 47.5665 212.754 47.8172 212.765 48.0648C212.765 48.1152 212.749 48.1576 212.715 48.1918C212.681 48.226 212.639 48.2422 212.589 48.2422H211.489C211.423 48.2422 211.368 48.2308 211.326 48.2081C211.284 48.1853 211.247 48.1494 211.214 48.099C211.18 47.9703 211.09 47.8596 210.943 47.77C210.796 47.6805 210.614 47.6349 210.397 47.6349C210.147 47.6349 209.956 47.6805 209.822 47.77C209.688 47.8596 209.622 47.9915 209.622 48.1657C209.622 48.283 209.659 48.3823 209.735 48.4605C209.811 48.5386 209.931 48.6103 210.102 48.6754C210.271 48.7405 210.514 48.8057 210.832 48.8741C211.349 48.9701 211.761 49.089 212.071 49.2323C212.378 49.3756 212.605 49.5612 212.75 49.7892C212.895 50.0172 212.966 50.3021 212.966 50.6441C212.966 51.0203 212.86 51.3476 212.646 51.626C212.431 51.9045 212.135 52.1178 211.753 52.266C211.373 52.4141 210.938 52.489 210.448 52.489C209.92 52.489 209.467 52.4109 209.089 52.2529V52.2513Z" fill="#4C4C4D"/>
<path d="M213.574 52.3392C213.532 52.2969 213.511 52.2481 213.511 52.1911V46.7132C213.511 46.6513 213.532 46.6008 213.574 46.5618C213.615 46.5227 213.664 46.5031 213.72 46.5031H216.054C216.766 46.5031 217.325 46.6692 217.734 46.9998C218.144 47.332 218.347 47.814 218.347 48.4491C218.347 49.0841 218.144 49.5515 217.738 49.869C217.332 50.1865 216.771 50.3445 216.054 50.3445H215.062V52.1894C215.062 52.2513 215.041 52.3018 214.999 52.3409C214.957 52.38 214.906 52.3995 214.844 52.3995H213.718C213.664 52.3995 213.614 52.3783 213.572 52.336L213.574 52.3392ZM216.012 49.1835C216.257 49.1835 216.449 49.1199 216.587 48.9946C216.726 48.8675 216.795 48.6819 216.795 48.4344C216.795 48.2032 216.729 48.0208 216.599 47.8824C216.468 47.744 216.272 47.6756 216.011 47.6756H215.036V49.1835H216.011H216.012Z" fill="#4C4C4D"/>
<path d="M218.074 52.349C218.039 52.3132 218.02 52.2725 218.02 52.2269C218.02 52.1927 218.023 52.1683 218.028 52.1503L219.986 46.7409C220.003 46.6741 220.04 46.6171 220.094 46.5715C220.149 46.5259 220.222 46.5048 220.31 46.5048H221.544C221.633 46.5048 221.705 46.5276 221.76 46.5715C221.815 46.6171 221.852 46.6725 221.868 46.7409L223.819 52.1503L223.835 52.2269C223.835 52.2725 223.817 52.3132 223.78 52.349C223.743 52.3848 223.701 52.4044 223.651 52.4044H222.625C222.491 52.4044 222.403 52.3457 222.358 52.2269L222.032 51.3671H219.806L219.489 52.2269C219.444 52.3441 219.352 52.4044 219.213 52.4044H218.187C218.142 52.4044 218.102 52.3865 218.066 52.349H218.074ZM221.705 50.1523L220.93 47.928L220.156 50.1523H221.705Z" fill="#4C4C4D"/>
<path d="M224.349 52.3392C224.307 52.2969 224.286 52.2481 224.286 52.1911V46.7132C224.286 46.6513 224.307 46.6008 224.349 46.5618C224.39 46.5227 224.439 46.5031 224.495 46.5031H226.763C227.491 46.5031 228.06 46.6709 228.468 47.0047C228.877 47.3385 229.08 47.8124 229.08 48.4246C229.08 48.8187 228.988 49.1525 228.804 49.4277C228.621 49.7029 228.368 49.913 228.046 50.0595L229.188 52.1324C229.204 52.1666 229.213 52.1976 229.213 52.2253C229.213 52.2709 229.196 52.3116 229.159 52.3474C229.123 52.3832 229.083 52.4027 229.038 52.4027H227.93C227.768 52.4027 227.654 52.3262 227.588 52.1748L226.638 50.3201H225.787V52.1911C225.787 52.2529 225.766 52.3034 225.724 52.3425C225.682 52.3816 225.631 52.4011 225.57 52.4011H224.494C224.439 52.4011 224.389 52.38 224.347 52.3376L224.349 52.3392ZM226.746 49.1248C227.002 49.1248 227.195 49.0613 227.329 48.9359C227.462 48.8089 227.528 48.6347 227.528 48.41C227.528 48.1853 227.462 48.0061 227.332 47.8742C227.201 47.7423 227.005 47.6756 226.744 47.6756H225.785V49.1248H226.744H226.746Z" fill="#4C4C4D"/>
<path d="M229.803 52.3392C229.761 52.2969 229.74 52.2481 229.74 52.1911V46.7132C229.74 46.6513 229.761 46.6008 229.803 46.5618C229.845 46.5227 229.893 46.5031 229.95 46.5031H231C231.061 46.5031 231.111 46.5227 231.15 46.5618C231.188 46.6008 231.208 46.6513 231.208 46.7132V48.5842L232.749 46.6627C232.815 46.5553 232.925 46.5031 233.075 46.5031H234.275C234.325 46.5031 234.367 46.5211 234.4 46.5585C234.434 46.596 234.45 46.635 234.45 46.6806C234.45 46.7197 234.442 46.7539 234.425 46.7816L232.424 49.3268L234.574 52.1243C234.597 52.1471 234.608 52.1813 234.608 52.2253C234.608 52.2692 234.592 52.3116 234.558 52.3474C234.524 52.3832 234.483 52.4027 234.433 52.4027H233.191C233.057 52.4027 232.946 52.3474 232.857 52.2334L231.206 50.1523V52.1911C231.206 52.2529 231.187 52.3034 231.148 52.3425C231.109 52.3816 231.059 52.4011 230.998 52.4011H229.948C229.893 52.4011 229.843 52.38 229.801 52.3376L229.803 52.3392Z" fill="#4C4C4D"/>
<path d="M21.7628 44.0003H10.8814V55H21.7628V44.0003Z" fill="#D81F26"/>
<path d="M10.8814 33.0006H0V44.0003H10.8814V33.0006Z" fill="#E08C23"/>
<path d="M21.7628 33.0006H10.8814V44.0003H21.7628V33.0006Z" fill="#D81F26"/>
<path d="M32.6442 33.0006H21.7628V44.0003H32.6442V33.0006Z" fill="#D81F26"/>
<path d="M10.8814 21.9994H0V32.999H10.8814V21.9994Z" fill="#E6B71D"/>
<path d="M21.7628 21.9994H10.8814V32.999H21.7628V21.9994Z" fill="#E08C23"/>
<path d="M32.6442 21.9994H21.7628V32.999H32.6442V21.9994Z" fill="#D81F26"/>
<path d="M21.7628 10.9997H10.8814V21.9993H21.7628V10.9997Z" fill="#E6B71D"/>
<path d="M32.6442 10.9997H21.7628V21.9993H32.6442V10.9997Z" fill="#E08C23"/>
<path d="M32.6442 0H21.7628V10.9997H32.6442V0Z" fill="#E6B71D"/>
</g>
<defs>
<clipPath id="clip0_2_2">
<rect width="236" height="55" fill="white"/>
</clipPath>
</defs>
</svg>
