<svg width="210" height="42" viewBox="0 0 210 42" fill="none" xmlns="http://www.w3.org/2000/svg">
<path d="M20.671 29.0249C18.9284 29.8207 16.921 30.2186 14.649 30.2186C12.5777 30.2186 10.6645 29.8776 8.91121 29.1954C7.15612 28.5133 5.63551 27.5469 4.34762 26.2981C3.05972 25.0493 2.04894 23.5518 1.31706 21.8091C0.585183 20.0665 0.219238 18.1479 0.219238 16.0518C0.219238 13.9556 0.592286 11.9607 1.3366 10.2181C2.08092 8.4754 3.10946 6.99209 4.424 5.76815C5.73677 4.5442 7.27692 3.60271 9.04444 2.94543C10.812 2.28994 12.7181 1.9613 14.7645 1.9613C16.6581 1.9613 18.5198 2.29705 20.3513 2.96498C22.181 3.63468 23.6661 4.61348 24.8012 5.8996L20.4081 10.2927C19.8024 9.45953 19.0065 8.84134 18.0224 8.43632C17.0383 8.03307 16.0275 7.83056 14.9919 7.83056C13.855 7.83056 12.814 8.0384 11.8672 8.45586C10.9203 8.87331 10.105 9.44709 9.42459 10.179C8.74245 10.9109 8.21308 11.776 7.83293 12.7743C7.45456 13.7726 7.26448 14.8634 7.26448 16.05C7.26448 17.2366 7.45456 18.3735 7.83293 19.3825C8.21131 20.3933 8.73535 21.2567 9.40505 21.9779C10.073 22.6973 10.8759 23.2605 11.8103 23.6637C12.7447 24.0687 13.7661 24.2695 14.8782 24.2695C16.1661 24.2695 17.2888 24.0172 18.2498 23.5127C19.2091 23.0082 19.9782 22.3509 20.5609 21.5427L25.0676 25.7847C23.881 27.149 22.4155 28.2273 20.6746 29.0231L20.671 29.0249Z" fill="#231F20"/>
<path d="M38.7726 29.4974V19.2706C38.7726 18.7395 38.7353 18.235 38.6589 17.7553C38.5825 17.2757 38.4369 16.8529 38.2237 16.487C38.0088 16.121 37.7245 15.8297 37.371 15.6165C37.0175 15.4016 36.5628 15.295 36.0068 15.295C34.9214 15.295 34.0882 15.6805 33.5073 16.4497C32.9265 17.2206 32.6369 18.1728 32.6369 19.3097V29.4992H26.4248V0.863464H32.6369V13.023H32.7133C33.1432 12.2662 33.8235 11.5894 34.7579 10.9961C35.6923 10.4028 36.815 10.1061 38.1296 10.1061C39.4441 10.1061 40.4975 10.3335 41.368 10.7883C42.2384 11.243 42.9454 11.8292 43.489 12.5505C44.0326 13.2699 44.4234 14.0977 44.6632 15.0321C44.903 15.9665 45.0238 16.9009 45.0238 17.8353V29.501H38.7744L38.7726 29.4974Z" fill="#231F20"/>
<path d="M60.5532 29.4974V26.8843H60.4768C60.2494 27.3142 59.9528 27.7174 59.5868 28.0958C59.2209 28.4742 58.791 28.8028 58.2989 29.0799C57.8069 29.3588 57.2633 29.5844 56.6699 29.762C56.0766 29.9379 55.4513 30.0267 54.7958 30.0267C53.5328 30.0267 52.467 29.7994 51.5947 29.3446C50.7243 28.8898 50.0155 28.3036 49.4737 27.5824C48.9301 26.8629 48.5393 26.0422 48.2995 25.1203C48.0597 24.1983 47.9389 23.2586 47.9389 22.2976V10.6319H54.1883V20.8587C54.1883 21.3898 54.2256 21.8943 54.302 22.374C54.3784 22.8536 54.5223 23.2835 54.7372 23.6619C54.9522 24.0402 55.2364 24.3369 55.5899 24.5518C55.9434 24.7668 56.4106 24.8734 56.9915 24.8734C58.0769 24.8734 58.9047 24.4701 59.4731 23.6619C60.0416 22.8536 60.3258 21.9068 60.3258 20.8214V10.6319H66.5379V29.4956H60.5532V29.4974Z" fill="#231F20"/>
<path d="M77.2337 15.2559V22.4806C77.2337 23.367 77.4042 24.0331 77.7453 24.4772C78.0864 24.9213 78.6974 25.1434 79.5821 25.1434C79.8859 25.1434 80.2074 25.1185 80.5485 25.067C80.8895 25.0173 81.1738 24.9409 81.4011 24.8396L81.4775 29.3855C81.0476 29.5364 80.5058 29.6697 79.8486 29.7834C79.1913 29.8971 78.5358 29.9539 77.8785 29.9539C76.6155 29.9539 75.555 29.7958 74.697 29.4796C73.839 29.1634 73.1497 28.7086 72.6328 28.1118C72.1141 27.5167 71.7428 26.8079 71.5154 25.9854C71.288 25.1629 71.1744 24.2445 71.1744 23.232V15.2577H68.1438V10.6372H71.1353V5.67572H77.2337V10.6372H81.6658V15.2577H77.2337V15.2559Z" fill="#231F20"/>
<path d="M96.8168 29.4974V19.1942C96.8168 18.663 96.7724 18.1585 96.6836 17.6789C96.5948 17.1993 96.4491 16.7765 96.2484 16.4106C96.0459 16.0446 95.7616 15.7551 95.3957 15.5401C95.0298 15.3252 94.5679 15.2186 94.0137 15.2186C93.4594 15.2186 92.9727 15.327 92.5552 15.5401C92.1378 15.7551 91.7914 16.0517 91.5142 16.4301C91.2353 16.8085 91.0275 17.2437 90.8889 17.7375C90.7504 18.2296 90.6811 18.7412 90.6811 19.2724V29.4991H84.4317V10.6355H90.4537V13.2486H90.5301C90.7575 12.8453 91.0541 12.4474 91.4201 12.0548C91.786 11.664 92.2159 11.33 92.708 11.0511C93.2001 10.774 93.7365 10.5466 94.3174 10.369C94.8983 10.1931 95.5165 10.1043 96.1738 10.1043C97.4368 10.1043 98.5097 10.3317 99.3926 10.7864C100.275 11.2412 100.99 11.8274 101.533 12.5487C102.077 13.2681 102.468 14.0959 102.707 15.0303C102.947 15.9647 103.068 16.8991 103.068 17.8335V29.4991H96.8186L96.8168 29.4974Z" fill="#231F20"/>
<path d="M124.088 20.2938V21.0506C124.088 21.3028 124.076 21.5426 124.051 21.77H110.378C110.428 22.3012 110.586 22.7808 110.852 23.2089C111.117 23.6388 111.458 24.0101 111.875 24.3263C112.293 24.6425 112.758 24.8894 113.277 25.0653C113.794 25.2429 114.33 25.3299 114.886 25.3299C115.871 25.3299 116.704 25.147 117.386 24.781C118.068 24.4151 118.622 23.9426 119.052 23.3599L123.371 26.0867C122.486 27.3746 121.319 28.3658 119.867 29.0604C118.414 29.755 116.729 30.1014 114.81 30.1014C113.396 30.1014 112.057 29.8793 110.795 29.4388C109.532 28.9964 108.427 28.3534 107.481 27.5078C106.534 26.6622 105.788 25.6213 105.246 24.3831C104.702 23.1467 104.432 21.7309 104.432 20.1411C104.432 18.5512 104.697 17.2046 105.228 15.9558C105.757 14.7052 106.479 13.6447 107.386 12.7743C108.294 11.9038 109.369 11.227 110.605 10.7474C111.842 10.2678 113.181 10.028 114.62 10.028C116.059 10.028 117.285 10.2624 118.446 10.7279C119.608 11.1951 120.605 11.8701 121.438 12.7547C122.271 13.6394 122.921 14.7123 123.388 15.9736C123.856 17.2366 124.09 18.6755 124.09 20.292L124.088 20.2938ZM118.368 17.9081C118.368 16.924 118.059 16.0784 117.441 15.3696C116.821 14.6626 115.894 14.3091 114.657 14.3091C114.052 14.3091 113.495 14.4032 112.991 14.5933C112.485 14.7834 112.044 15.0428 111.666 15.3696C111.287 15.6983 110.984 16.0837 110.756 16.5243C110.529 16.9666 110.403 17.4267 110.378 17.9063H118.37L118.368 17.9081Z" fill="#231F20"/>
<path d="M136.621 32.3397C136.242 33.3238 135.82 34.2013 135.352 34.9723C134.885 35.7415 134.329 36.3987 133.686 36.9423C133.043 37.4859 132.285 37.8945 131.414 38.1734C130.544 38.4505 129.513 38.5908 128.327 38.5908C127.746 38.5908 127.145 38.5535 126.527 38.4771C125.907 38.4008 125.373 38.2995 124.918 38.1734L125.6 32.9472C125.904 33.0484 126.238 33.1302 126.604 33.1941C126.97 33.2563 127.304 33.2883 127.607 33.2883C128.567 33.2883 129.261 33.0662 129.691 32.6257C130.121 32.1833 130.487 31.558 130.789 30.7515L131.395 29.199L123.516 10.639H130.41L134.615 22.7595H134.729L138.479 10.639H145.069L136.623 32.3432L136.621 32.3397Z" fill="#231F20"/>
<path d="M162.908 29.4974L160.824 24.2321H150.447L148.477 29.4974H141.431L152.681 2.68073H158.968L170.104 29.4974H162.908ZM155.712 9.83966L152.303 19.0432H159.045L155.712 9.83966Z" fill="#231F20"/>
<path d="M184.785 29.4974V27.0353H184.708C184.102 27.9946 183.237 28.7335 182.113 29.2505C180.988 29.7674 179.796 30.0268 178.533 30.0268C177.119 30.0268 175.856 29.7479 174.746 29.1936C173.634 28.6394 172.694 27.9004 171.925 26.9785C171.154 26.0565 170.568 24.9907 170.163 23.7774C169.758 22.5659 169.557 21.3028 169.557 19.9901C169.557 18.6773 169.765 17.4214 170.183 16.2205C170.6 15.0214 171.192 13.9663 171.963 13.0585C172.732 12.149 173.666 11.4295 174.766 10.9002C175.864 10.3708 177.095 10.1043 178.459 10.1043C179.823 10.1043 181.022 10.369 181.981 10.9002C182.941 11.4313 183.687 12.0122 184.216 12.6428H184.293V0.863464H190.505V29.4992H184.785V29.4974ZM184.557 20.0274C184.557 19.4216 184.449 18.8283 184.236 18.2474C184.021 17.6665 183.717 17.1496 183.326 16.6948C182.934 16.2401 182.461 15.8741 181.905 15.597C181.349 15.3199 180.718 15.1795 180.011 15.1795C179.304 15.1795 178.635 15.3181 178.079 15.597C177.523 15.8759 177.055 16.2347 176.677 16.6771C176.299 17.1194 176.015 17.631 175.824 18.2119C175.634 18.7928 175.54 19.3861 175.54 19.9918C175.54 20.5976 175.634 21.198 175.824 21.7913C176.015 22.3847 176.299 22.9087 176.677 23.3635C177.055 23.8182 177.523 24.1842 178.079 24.4613C178.633 24.7402 179.278 24.877 180.011 24.877C180.745 24.877 181.349 24.7384 181.905 24.4613C182.459 24.1842 182.934 23.8182 183.326 23.3635C183.717 22.9087 184.021 22.3918 184.236 21.8109C184.451 21.23 184.557 20.6367 184.557 20.0309V20.0274Z" fill="#231F20"/>
<path d="M205.844 16.2028C205.339 15.7231 204.746 15.3199 204.064 14.9913C203.382 14.6626 202.662 14.4992 201.906 14.4992C201.325 14.4992 200.788 14.6129 200.296 14.8403C199.804 15.0676 199.557 15.4584 199.557 16.0145C199.557 16.5705 199.829 16.924 200.371 17.1514C200.913 17.3787 201.792 17.631 203.003 17.9081C203.71 18.0591 204.425 18.2741 205.144 18.5512C205.864 18.8301 206.514 19.1942 207.095 19.649C207.675 20.1038 208.143 20.6598 208.496 21.3153C208.85 21.9725 209.027 22.7542 209.027 23.6637C209.027 24.8503 208.787 25.854 208.308 26.6747C207.828 27.4954 207.203 28.158 206.434 28.6625C205.663 29.1688 204.798 29.5329 203.838 29.7603C202.879 29.9877 201.92 30.1014 200.959 30.1014C199.419 30.1014 197.909 29.8545 196.433 29.3624C194.955 28.8703 193.724 28.1438 192.739 27.1845L196.225 23.5109C196.779 24.1167 197.461 24.6229 198.269 25.0262C199.078 25.4312 199.936 25.6319 200.845 25.6319C201.35 25.6319 201.849 25.5129 202.341 25.2713C202.833 25.0315 203.08 24.6087 203.08 24.003C203.08 23.3972 202.776 22.994 202.17 22.7151C201.565 22.438 200.618 22.1466 199.33 21.8446C198.673 21.6936 198.017 21.4911 197.36 21.2389C196.703 20.9866 196.116 20.6456 195.599 20.2157C195.081 19.7858 194.658 19.2564 194.331 18.624C194.002 17.9934 193.839 17.2349 193.839 16.352C193.839 15.2151 194.079 14.2505 194.558 13.4547C195.038 12.6588 195.656 12.0087 196.415 11.5042C197.172 10.9997 198.012 10.6266 198.934 10.3868C199.856 10.147 200.771 10.0262 201.68 10.0262C203.094 10.0262 204.476 10.2482 205.828 10.6888C207.178 11.1311 208.322 11.7937 209.256 12.6766L205.848 16.1992L205.844 16.2028Z" fill="#231F20"/>
<path d="M141.327 41.0973C141.28 41.0511 141.257 40.9978 141.257 40.9357V34.9598C141.257 34.8923 141.28 34.8372 141.327 34.7946C141.373 34.752 141.426 34.7307 141.488 34.7307H144.293C145.066 34.7307 145.64 34.8888 146.016 35.205C146.393 35.5212 146.581 35.9688 146.581 36.5515C146.581 36.8588 146.503 37.1164 146.347 37.3278C146.19 37.5392 146.015 37.6937 145.817 37.7914C146.068 37.9087 146.279 38.0952 146.452 38.3528C146.624 38.6103 146.709 38.8981 146.709 39.2161C146.709 39.8289 146.507 40.3068 146.102 40.6496C145.697 40.9925 145.121 41.1648 144.373 41.1648H141.486C141.426 41.1648 141.371 41.1417 141.325 41.0955L141.327 41.0973ZM144.108 37.2869C144.354 37.2869 144.54 37.2247 144.67 37.0986C144.798 36.9725 144.863 36.8055 144.863 36.5977C144.863 36.3898 144.799 36.2335 144.67 36.1109C144.542 35.9884 144.354 35.9262 144.108 35.9262H142.913V37.2869H144.108ZM144.192 39.9711C144.442 39.9711 144.64 39.8982 144.78 39.7508C144.92 39.6033 144.991 39.4257 144.991 39.2179C144.991 38.9976 144.92 38.8146 144.78 38.6707C144.64 38.5268 144.442 38.454 144.192 38.454H142.915V39.9711H144.192Z" fill="#4C4C4D"/>
<path d="M149.017 41.0974C148.97 41.0512 148.947 40.9979 148.947 40.9357V38.9586L146.814 35.0238C146.796 34.9688 146.786 34.935 146.786 34.9226C146.786 34.8728 146.805 34.8284 146.846 34.7893C146.885 34.7503 146.933 34.7289 146.988 34.7289H148.137C148.26 34.7289 148.367 34.7929 148.459 34.9226L149.773 37.2941L151.097 34.9226C151.17 34.7947 151.278 34.7289 151.418 34.7289H152.568C152.623 34.7289 152.669 34.7485 152.706 34.7893C152.744 34.8302 152.761 34.8728 152.761 34.9226C152.761 34.9528 152.756 34.9865 152.744 35.0238L150.61 38.9586V40.9357C150.61 41.0032 150.587 41.0583 150.541 41.1009C150.495 41.1436 150.438 41.1649 150.37 41.1649H149.175C149.114 41.1649 149.059 41.1418 149.013 41.0956L149.017 41.0974Z" fill="#4C4C4D"/>
<path d="M155.213 41.0973C155.167 41.0511 155.144 40.9978 155.144 40.9357V34.9598C155.144 34.8923 155.167 34.8372 155.213 34.7946C155.259 34.752 155.312 34.7307 155.374 34.7307H157.766C158.666 34.7307 159.364 34.9456 159.862 35.3737C160.357 35.8036 160.618 36.4254 160.643 37.2389C160.649 37.4166 160.652 37.6528 160.652 37.9477C160.652 38.2426 160.649 38.4753 160.643 38.6459C160.613 39.4985 160.359 40.1309 159.885 40.5448C159.411 40.9587 158.719 41.1648 157.812 41.1648H155.376C155.316 41.1648 155.261 41.1417 155.215 41.0955L155.213 41.0973ZM157.764 39.8432C158.169 39.8432 158.465 39.7472 158.656 39.5536C158.846 39.36 158.947 39.0527 158.959 38.6299C158.972 38.4522 158.977 38.2231 158.977 37.9406C158.977 37.6582 158.972 37.4326 158.959 37.2603C158.947 36.8499 158.838 36.5461 158.632 36.3507C158.426 36.1553 158.123 36.0559 157.718 36.0559H156.799V39.8432H157.764Z" fill="#4C4C4D"/>
<path d="M161.475 41.0973C161.428 41.0511 161.405 40.9978 161.405 40.9357V34.9598C161.405 34.8923 161.428 34.8372 161.475 34.7946C161.521 34.752 161.574 34.7307 161.636 34.7307H162.869C162.937 34.7307 162.994 34.752 163.04 34.7946C163.086 34.8372 163.109 34.8923 163.109 34.9598V40.9357C163.109 41.0032 163.086 41.0582 163.04 41.1009C162.994 41.1435 162.937 41.1648 162.869 41.1648H161.636C161.576 41.1648 161.521 41.1417 161.475 41.0955V41.0973Z" fill="#4C4C4D"/>
<path d="M164.676 40.6106C164.18 40.179 163.915 39.5643 163.885 38.7667C163.878 38.5891 163.876 38.3066 163.876 37.9212C163.876 37.5357 163.88 37.2532 163.885 37.0756C163.915 36.2975 164.184 35.6971 164.69 35.2743C165.196 34.8515 165.88 34.6401 166.745 34.6401C167.328 34.6401 167.834 34.7361 168.268 34.9244C168.699 35.1144 169.03 35.356 169.261 35.6509C169.49 35.9458 169.611 36.2478 169.623 36.5604C169.623 36.6155 169.603 36.6617 169.563 36.699C169.524 36.7363 169.476 36.7541 169.421 36.7541H168.078C168.017 36.7541 167.967 36.7452 167.93 36.7256C167.893 36.7061 167.863 36.6741 167.838 36.6244C167.758 36.4467 167.632 36.2922 167.461 36.1607C167.289 36.0293 167.051 35.9636 166.743 35.9636C166.013 35.9636 165.631 36.349 165.594 37.1218C165.587 37.2941 165.585 37.5606 165.585 37.9212C165.585 38.2818 165.589 38.5429 165.594 38.7205C165.631 39.5288 166.022 39.9338 166.77 39.9338C167.133 39.9338 167.422 39.8397 167.639 39.6532C167.856 39.4666 167.966 39.1789 167.966 38.7934V38.6193H167.102C167.035 38.6193 166.98 38.5962 166.937 38.55C166.894 38.5038 166.873 38.447 166.873 38.3795V37.6991C166.873 37.6316 166.894 37.5748 166.937 37.5286C166.98 37.4824 167.035 37.4593 167.102 37.4593H169.419C169.486 37.4593 169.541 37.4824 169.584 37.5286C169.627 37.5748 169.648 37.6316 169.648 37.6991V38.7472C169.648 39.2677 169.529 39.7171 169.289 40.0937C169.051 40.4703 168.712 40.7581 168.273 40.9588C167.834 41.1578 167.324 41.2573 166.742 41.2573C165.859 41.2573 165.17 41.0405 164.674 40.6089L164.676 40.6106Z" fill="#4C4C4D"/>
<path d="M170.463 41.0973C170.417 41.0511 170.394 40.9978 170.394 40.9357V34.9598C170.394 34.8923 170.417 34.8372 170.463 34.7946C170.509 34.752 170.563 34.7307 170.625 34.7307H171.858C171.925 34.7307 171.982 34.752 172.028 34.7946C172.075 34.8372 172.098 34.8923 172.098 34.9598V40.9357C172.098 41.0032 172.075 41.0582 172.028 41.1009C171.982 41.1435 171.925 41.1648 171.858 41.1648H170.625C170.565 41.1648 170.509 41.1417 170.463 41.0955V41.0973Z" fill="#4C4C4D"/>
<path d="M174.574 41.0974C174.528 41.0512 174.505 40.9979 174.505 40.9357V36.1732H172.868C172.806 36.1732 172.753 36.1501 172.707 36.1039C172.661 36.0577 172.638 36.0044 172.638 35.9422V34.9581C172.638 34.8906 172.661 34.8355 172.707 34.7929C172.753 34.7503 172.806 34.7289 172.868 34.7289H177.814C177.882 34.7289 177.937 34.7503 177.979 34.7929C178.022 34.8355 178.043 34.8906 178.043 34.9581V35.9422C178.043 36.0097 178.022 36.0648 177.979 36.1074C177.937 36.1501 177.882 36.1714 177.814 36.1714H176.178V40.9339C176.178 40.9961 176.157 41.0494 176.114 41.0956C176.071 41.1418 176.016 41.1649 175.949 41.1649H174.736C174.673 41.1649 174.62 41.1418 174.574 41.0956V41.0974Z" fill="#4C4C4D"/>
<path d="M179.576 41.0014C179.159 40.8291 178.846 40.6053 178.635 40.3264C178.423 40.0475 178.311 39.7419 178.299 39.4115C178.299 39.3618 178.318 39.3174 178.359 39.2783C178.4 39.2392 178.446 39.2179 178.501 39.2179H179.66C179.732 39.2179 179.793 39.2321 179.839 39.2587C179.885 39.2854 179.933 39.328 179.981 39.3831C180.061 39.543 180.189 39.6744 180.367 39.7792C180.544 39.884 180.781 39.9355 181.074 39.9355C181.424 39.9355 181.69 39.8805 181.873 39.7703C182.056 39.6602 182.148 39.5092 182.148 39.3191C182.148 39.1841 182.1 39.074 182.006 38.9887C181.91 38.9035 181.763 38.8271 181.56 38.7596C181.358 38.6921 181.058 38.6157 180.66 38.5304C179.924 38.3776 179.374 38.152 179.01 37.8554C178.645 37.5587 178.462 37.1342 178.462 36.5817C178.462 36.2086 178.567 35.8729 178.775 35.5798C178.983 35.2849 179.281 35.0558 179.667 34.8905C180.052 34.7253 180.503 34.6418 181.019 34.6418C181.534 34.6418 182.015 34.7342 182.406 34.9172C182.797 35.1002 183.097 35.3329 183.303 35.6118C183.509 35.8907 183.618 36.1642 183.63 36.4342C183.63 36.4893 183.612 36.5355 183.575 36.5728C183.538 36.6101 183.491 36.6279 183.436 36.6279H182.223C182.15 36.6279 182.09 36.6154 182.044 36.5906C181.997 36.5657 181.957 36.5266 181.919 36.4716C181.882 36.3312 181.782 36.2104 181.621 36.1127C181.459 36.015 181.258 35.9653 181.019 35.9653C180.743 35.9653 180.532 36.015 180.384 36.1127C180.237 36.2104 180.164 36.3543 180.164 36.5444C180.164 36.6723 180.205 36.7806 180.289 36.8659C180.372 36.9512 180.505 37.0293 180.694 37.1004C180.88 37.1715 181.148 37.2425 181.498 37.3171C182.068 37.4219 182.523 37.5516 182.864 37.7079C183.204 37.8643 183.454 38.0668 183.614 38.3155C183.774 38.5642 183.852 38.875 183.852 39.2481C183.852 39.6584 183.735 40.0155 183.498 40.3193C183.262 40.623 182.935 40.8557 182.514 41.0174C182.095 41.179 181.616 41.2607 181.075 41.2607C180.493 41.2607 179.994 41.1755 179.576 41.0032V41.0014Z" fill="#4C4C4D"/>
<path d="M184.522 41.0973C184.476 41.0511 184.453 40.9978 184.453 40.9357V34.9598C184.453 34.8923 184.476 34.8372 184.522 34.7946C184.568 34.752 184.621 34.7307 184.683 34.7307H187.257C188.043 34.7307 188.659 34.9118 189.11 35.2725C189.561 35.6348 189.785 36.1607 189.785 36.8535C189.785 37.5463 189.561 38.0561 189.114 38.4025C188.666 38.7489 188.048 38.9212 187.257 38.9212H186.163V40.9339C186.163 41.0014 186.14 41.0564 186.094 41.0991C186.048 41.1417 185.991 41.163 185.923 41.163H184.682C184.621 41.163 184.566 41.1399 184.52 41.0938L184.522 41.0973ZM187.211 37.6546C187.481 37.6546 187.693 37.5853 187.845 37.4486C187.998 37.31 188.075 37.1075 188.075 36.8375C188.075 36.5852 188.002 36.3863 187.858 36.2353C187.714 36.0843 187.497 36.0097 187.21 36.0097H186.135V37.6546H187.21H187.211Z" fill="#4C4C4D"/>
<path d="M189.485 41.108C189.446 41.0689 189.425 41.0245 189.425 40.9748C189.425 40.9375 189.428 40.9108 189.434 40.8913L191.594 34.9901C191.611 34.9172 191.652 34.8551 191.713 34.8053C191.773 34.7556 191.853 34.7325 191.951 34.7325H193.311C193.409 34.7325 193.489 34.7574 193.549 34.8053C193.61 34.8551 193.651 34.9155 193.669 34.9901L195.82 40.8913L195.838 40.9748C195.838 41.0245 195.818 41.0689 195.777 41.108C195.736 41.1471 195.69 41.1684 195.635 41.1684H194.503C194.356 41.1684 194.258 41.1045 194.209 40.9748L193.85 40.0368H191.395L191.045 40.9748C190.995 41.1027 190.894 41.1684 190.741 41.1684H189.609C189.56 41.1684 189.515 41.1489 189.476 41.108H189.485ZM193.489 38.7134L192.635 36.2868L191.78 38.7134H193.489Z" fill="#4C4C4D"/>
<path d="M196.404 41.0973C196.358 41.0511 196.335 40.9978 196.335 40.9357V34.9598C196.335 34.8923 196.358 34.8372 196.404 34.7946C196.45 34.752 196.504 34.7307 196.566 34.7307H199.067C199.87 34.7307 200.497 34.9136 200.947 35.2778C201.398 35.642 201.622 36.1589 201.622 36.8268C201.622 37.2567 201.52 37.6209 201.318 37.9211C201.115 38.2213 200.836 38.4505 200.481 38.6103L201.741 40.8717C201.758 40.909 201.769 40.9428 201.769 40.973C201.769 41.0227 201.749 41.0671 201.709 41.1062C201.67 41.1453 201.625 41.1666 201.575 41.1666H200.353C200.176 41.1666 200.049 41.0831 199.977 40.9179L198.929 38.8946H197.991V40.9357C197.991 41.0032 197.967 41.0582 197.921 41.1009C197.875 41.1435 197.818 41.1648 197.751 41.1648H196.564C196.504 41.1648 196.449 41.1417 196.402 41.0955L196.404 41.0973ZM199.048 37.5907C199.33 37.5907 199.543 37.5214 199.691 37.3846C199.838 37.246 199.911 37.056 199.911 36.8108C199.911 36.5657 199.838 36.3703 199.694 36.2264C199.55 36.0825 199.334 36.0097 199.046 36.0097H197.989V37.5907H199.046H199.048Z" fill="#4C4C4D"/>
<path d="M202.419 41.0973C202.373 41.0511 202.35 40.9978 202.35 40.9357V34.9598C202.35 34.8923 202.373 34.8372 202.419 34.7946C202.465 34.752 202.518 34.7307 202.581 34.7307H203.739C203.806 34.7307 203.861 34.752 203.904 34.7946C203.947 34.8372 203.968 34.8923 203.968 34.9598V37.0009L205.668 34.9047C205.741 34.7875 205.862 34.7307 206.027 34.7307H207.35C207.405 34.7307 207.452 34.7502 207.489 34.7911C207.526 34.8319 207.544 34.8745 207.544 34.9243C207.544 34.9669 207.535 35.0042 207.516 35.0344L205.309 37.811L207.681 40.8628C207.706 40.8877 207.718 40.925 207.718 40.973C207.718 41.0209 207.7 41.0671 207.663 41.1062C207.626 41.1453 207.579 41.1666 207.524 41.1666H206.155C206.007 41.1666 205.885 41.1062 205.787 40.9818L203.966 38.7116V40.9357C203.966 41.0032 203.945 41.0582 203.902 41.1009C203.86 41.1435 203.805 41.1648 203.737 41.1648H202.579C202.518 41.1648 202.463 41.1417 202.417 41.0955L202.419 41.0973Z" fill="#4C4C4D"/>
</svg>
